%TF.GenerationSoftware,KiCad,Pcbnew,5.1.6*%
%TF.CreationDate,2020-06-10T16:54:39+07:00*%
%TF.ProjectId,pi_hat_driver_ULN2003,70695f68-6174-45f6-9472-697665725f55,rev?*%
%TF.SameCoordinates,Original*%
%TF.FileFunction,Copper,L1,Top*%
%TF.FilePolarity,Positive*%
%FSLAX46Y46*%
G04 Gerber Fmt 4.6, Leading zero omitted, Abs format (unit mm)*
G04 Created by KiCad (PCBNEW 5.1.6) date 2020-06-10 16:54:39*
%MOMM*%
%LPD*%
G01*
G04 APERTURE LIST*
%TA.AperFunction,ComponentPad*%
%ADD10R,1.980000X3.960000*%
%TD*%
%TA.AperFunction,ComponentPad*%
%ADD11O,1.980000X3.960000*%
%TD*%
%TA.AperFunction,ComponentPad*%
%ADD12R,1.700000X1.700000*%
%TD*%
%TA.AperFunction,ComponentPad*%
%ADD13O,1.700000X1.700000*%
%TD*%
%TA.AperFunction,ComponentPad*%
%ADD14R,2.400000X1.600000*%
%TD*%
%TA.AperFunction,ComponentPad*%
%ADD15O,2.400000X1.600000*%
%TD*%
%TA.AperFunction,ComponentPad*%
%ADD16R,3.960000X1.980000*%
%TD*%
%TA.AperFunction,ComponentPad*%
%ADD17O,3.960000X1.980000*%
%TD*%
%TA.AperFunction,ViaPad*%
%ADD18C,1.700000*%
%TD*%
%TA.AperFunction,Conductor*%
%ADD19C,0.400000*%
%TD*%
%TA.AperFunction,Conductor*%
%ADD20C,0.508000*%
%TD*%
G04 APERTURE END LIST*
D10*
%TO.P,J1,1*%
%TO.N,VREL*%
X51990000Y-52070000D03*
D11*
%TO.P,J1,2*%
%TO.N,GND*%
X46990000Y-52070000D03*
%TO.P,J1,3*%
%TO.N,5V*%
X41990000Y-52070000D03*
%TD*%
D12*
%TO.P,J2,1*%
%TO.N,3V3*%
X30480000Y-54610000D03*
D13*
%TO.P,J2,2*%
%TO.N,5V*%
X27940000Y-54610000D03*
%TO.P,J2,3*%
%TO.N,N$17*%
X30480000Y-52070000D03*
%TO.P,J2,4*%
%TO.N,5V*%
X27940000Y-52070000D03*
%TO.P,J2,5*%
%TO.N,N$18*%
X30480000Y-49530000D03*
%TO.P,J2,6*%
%TO.N,GND*%
X27940000Y-49530000D03*
%TO.P,J2,7*%
%TO.N,N$19*%
X30480000Y-46990000D03*
%TO.P,J2,8*%
%TO.N,N$20*%
X27940000Y-46990000D03*
%TO.P,J2,9*%
%TO.N,GND*%
X30480000Y-44450000D03*
%TO.P,J2,10*%
%TO.N,N$21*%
X27940000Y-44450000D03*
%TO.P,J2,11*%
%TO.N,N$22*%
X30480000Y-41910000D03*
%TO.P,J2,12*%
%TO.N,N$23*%
X27940000Y-41910000D03*
%TO.P,J2,13*%
%TO.N,N$24*%
X30480000Y-39370000D03*
%TO.P,J2,14*%
%TO.N,GND*%
X27940000Y-39370000D03*
%TO.P,J2,15*%
%TO.N,N$25*%
X30480000Y-36830000D03*
%TO.P,J2,16*%
%TO.N,N$1*%
X27940000Y-36830000D03*
%TO.P,J2,17*%
%TO.N,3V3*%
X30480000Y-34290000D03*
%TO.P,J2,18*%
%TO.N,N$2*%
X27940000Y-34290000D03*
%TO.P,J2,19*%
%TO.N,N$26*%
X30480000Y-31750000D03*
%TO.P,J2,20*%
%TO.N,GND*%
X27940000Y-31750000D03*
%TO.P,J2,21*%
%TO.N,N$27*%
X30480000Y-29210000D03*
%TO.P,J2,22*%
%TO.N,N$28*%
X27940000Y-29210000D03*
%TO.P,J2,23*%
%TO.N,N$29*%
X30480000Y-26670000D03*
%TO.P,J2,24*%
%TO.N,N$30*%
X27940000Y-26670000D03*
%TO.P,J2,25*%
%TO.N,GND*%
X30480000Y-24130000D03*
%TO.P,J2,26*%
%TO.N,N$31*%
X27940000Y-24130000D03*
%TD*%
D12*
%TO.P,J3,1*%
%TO.N,N$1*%
X24130000Y-36830000D03*
D13*
%TO.P,J3,2*%
%TO.N,N$2*%
X24130000Y-34290000D03*
%TO.P,J3,3*%
%TO.N,3V3*%
X24130000Y-31750000D03*
%TO.P,J3,4*%
%TO.N,GND*%
X24130000Y-29210000D03*
%TD*%
D12*
%TO.P,J4,1*%
%TO.N,N$3*%
X40640000Y-21590000D03*
D13*
%TO.P,J4,2*%
%TO.N,N$5*%
X40640000Y-24130000D03*
%TO.P,J4,3*%
%TO.N,N$7*%
X40640000Y-26670000D03*
%TO.P,J4,4*%
%TO.N,N$9*%
X40640000Y-29210000D03*
%TO.P,J4,5*%
%TO.N,N$11*%
X40640000Y-31750000D03*
%TO.P,J4,6*%
%TO.N,N$13*%
X40640000Y-34290000D03*
%TO.P,J4,7*%
%TO.N,N$15*%
X40640000Y-36830000D03*
%TD*%
%TO.P,J5,7*%
%TO.N,N$16*%
X55880000Y-36830000D03*
%TO.P,J5,6*%
%TO.N,N$14*%
X55880000Y-34290000D03*
%TO.P,J5,5*%
%TO.N,N$12*%
X55880000Y-31750000D03*
%TO.P,J5,4*%
%TO.N,N$10*%
X55880000Y-29210000D03*
%TO.P,J5,3*%
%TO.N,N$8*%
X55880000Y-26670000D03*
%TO.P,J5,2*%
%TO.N,N$6*%
X55880000Y-24130000D03*
D12*
%TO.P,J5,1*%
%TO.N,N$4*%
X55880000Y-21590000D03*
%TD*%
D14*
%TO.P,U1,1*%
%TO.N,N$3*%
X44450000Y-21590000D03*
D15*
%TO.P,U1,9*%
%TO.N,GND*%
X52070000Y-39370000D03*
%TO.P,U1,2*%
%TO.N,N$5*%
X44450000Y-24130000D03*
%TO.P,U1,10*%
%TO.N,N$16*%
X52070000Y-36830000D03*
%TO.P,U1,3*%
%TO.N,N$7*%
X44450000Y-26670000D03*
%TO.P,U1,11*%
%TO.N,N$14*%
X52070000Y-34290000D03*
%TO.P,U1,4*%
%TO.N,N$9*%
X44450000Y-29210000D03*
%TO.P,U1,12*%
%TO.N,N$12*%
X52070000Y-31750000D03*
%TO.P,U1,5*%
%TO.N,N$11*%
X44450000Y-31750000D03*
%TO.P,U1,13*%
%TO.N,N$10*%
X52070000Y-29210000D03*
%TO.P,U1,6*%
%TO.N,N$13*%
X44450000Y-34290000D03*
%TO.P,U1,14*%
%TO.N,N$8*%
X52070000Y-26670000D03*
%TO.P,U1,7*%
%TO.N,N$15*%
X44450000Y-36830000D03*
%TO.P,U1,15*%
%TO.N,N$6*%
X52070000Y-24130000D03*
%TO.P,U1,8*%
%TO.N,GND*%
X44450000Y-39370000D03*
%TO.P,U1,16*%
%TO.N,N$4*%
X52070000Y-21590000D03*
%TD*%
D12*
%TO.P,J6,1*%
%TO.N,N$17*%
X35560000Y-57150000D03*
D13*
%TO.P,J6,2*%
%TO.N,N$18*%
X35560000Y-54610000D03*
%TO.P,J6,3*%
%TO.N,N$19*%
X35560000Y-52070000D03*
%TO.P,J6,4*%
%TO.N,N$20*%
X35560000Y-49530000D03*
%TO.P,J6,5*%
%TO.N,N$21*%
X35560000Y-46990000D03*
%TO.P,J6,6*%
%TO.N,N$22*%
X35560000Y-44450000D03*
%TO.P,J6,7*%
%TO.N,N$23*%
X35560000Y-41910000D03*
%TO.P,J6,8*%
%TO.N,N$24*%
X35560000Y-39370000D03*
%TO.P,J6,9*%
%TO.N,N$25*%
X35560000Y-36830000D03*
%TO.P,J6,10*%
%TO.N,N$26*%
X35560000Y-34290000D03*
%TO.P,J6,11*%
%TO.N,N$27*%
X35560000Y-31750000D03*
%TO.P,J6,12*%
%TO.N,N$28*%
X35560000Y-29210000D03*
%TO.P,J6,13*%
%TO.N,N$29*%
X35560000Y-26670000D03*
%TO.P,J6,14*%
%TO.N,N$30*%
X35560000Y-24130000D03*
%TO.P,J6,15*%
%TO.N,N$31*%
X35560000Y-21590000D03*
%TD*%
D16*
%TO.P,J7,1*%
%TO.N,N$4*%
X66040000Y-19050000D03*
D17*
%TO.P,J7,2*%
%TO.N,N$6*%
X66040000Y-24050000D03*
%TO.P,J7,3*%
%TO.N,N$8*%
X66040000Y-29050000D03*
%TD*%
%TO.P,J8,3*%
%TO.N,N$14*%
X66040000Y-44450000D03*
%TO.P,J8,2*%
%TO.N,N$12*%
X66040000Y-39450000D03*
D16*
%TO.P,J8,1*%
%TO.N,N$10*%
X66040000Y-34450000D03*
%TD*%
%TO.P,J9,1*%
%TO.N,N$16*%
X66040000Y-49530000D03*
D17*
%TO.P,J9,2*%
%TO.N,VREL*%
X66040000Y-54530000D03*
%TO.P,J9,3*%
X66040000Y-59530000D03*
%TD*%
D18*
%TO.N,GND*%
X24130000Y-45720000D03*
X24130000Y-25400000D03*
%TO.N,5V*%
X41990000Y-60960000D03*
X27940000Y-60960000D03*
%TO.N,3V3*%
X33020000Y-35560000D03*
X33020000Y-57150000D03*
%TD*%
D19*
%TO.N,GND*%
X30480000Y-44450000D02*
X29210000Y-45720000D01*
X29210000Y-45720000D02*
X24130000Y-45720000D01*
X30480000Y-24130000D02*
X29210000Y-25400000D01*
X29210000Y-25400000D02*
X24130000Y-25400000D01*
D20*
%TO.N,5V*%
X41990000Y-60960000D02*
X27940000Y-60960000D01*
D19*
%TO.N,3V3*%
X33020000Y-35560000D02*
X33020000Y-57150000D01*
%TD*%
M02*
