%TF.GenerationSoftware,KiCad,Pcbnew,5.1.6*%
%TF.CreationDate,2020-06-10T16:54:39+07:00*%
%TF.ProjectId,pi_hat_driver_ULN2003,70695f68-6174-45f6-9472-697665725f55,rev?*%
%TF.SameCoordinates,Original*%
%TF.FileFunction,Copper,L2,Bot*%
%TF.FilePolarity,Positive*%
%FSLAX46Y46*%
G04 Gerber Fmt 4.6, Leading zero omitted, Abs format (unit mm)*
G04 Created by KiCad (PCBNEW 5.1.6) date 2020-06-10 16:54:39*
%MOMM*%
%LPD*%
G01*
G04 APERTURE LIST*
%TA.AperFunction,ComponentPad*%
%ADD10R,1.980000X3.960000*%
%TD*%
%TA.AperFunction,ComponentPad*%
%ADD11O,1.980000X3.960000*%
%TD*%
%TA.AperFunction,ComponentPad*%
%ADD12R,1.700000X1.700000*%
%TD*%
%TA.AperFunction,ComponentPad*%
%ADD13O,1.700000X1.700000*%
%TD*%
%TA.AperFunction,ComponentPad*%
%ADD14R,2.400000X1.600000*%
%TD*%
%TA.AperFunction,ComponentPad*%
%ADD15O,2.400000X1.600000*%
%TD*%
%TA.AperFunction,ComponentPad*%
%ADD16R,3.960000X1.980000*%
%TD*%
%TA.AperFunction,ComponentPad*%
%ADD17O,3.960000X1.980000*%
%TD*%
%TA.AperFunction,ViaPad*%
%ADD18C,1.700000*%
%TD*%
%TA.AperFunction,Conductor*%
%ADD19C,0.600000*%
%TD*%
%TA.AperFunction,Conductor*%
%ADD20C,0.400000*%
%TD*%
%TA.AperFunction,Conductor*%
%ADD21C,0.508000*%
%TD*%
%TA.AperFunction,Conductor*%
%ADD22C,0.254000*%
%TD*%
G04 APERTURE END LIST*
D10*
%TO.P,J1,1*%
%TO.N,VREL*%
X51990000Y-52070000D03*
D11*
%TO.P,J1,2*%
%TO.N,GND*%
X46990000Y-52070000D03*
%TO.P,J1,3*%
%TO.N,5V*%
X41990000Y-52070000D03*
%TD*%
D12*
%TO.P,J2,1*%
%TO.N,3V3*%
X30480000Y-54610000D03*
D13*
%TO.P,J2,2*%
%TO.N,5V*%
X27940000Y-54610000D03*
%TO.P,J2,3*%
%TO.N,N$17*%
X30480000Y-52070000D03*
%TO.P,J2,4*%
%TO.N,5V*%
X27940000Y-52070000D03*
%TO.P,J2,5*%
%TO.N,N$18*%
X30480000Y-49530000D03*
%TO.P,J2,6*%
%TO.N,GND*%
X27940000Y-49530000D03*
%TO.P,J2,7*%
%TO.N,N$19*%
X30480000Y-46990000D03*
%TO.P,J2,8*%
%TO.N,N$20*%
X27940000Y-46990000D03*
%TO.P,J2,9*%
%TO.N,GND*%
X30480000Y-44450000D03*
%TO.P,J2,10*%
%TO.N,N$21*%
X27940000Y-44450000D03*
%TO.P,J2,11*%
%TO.N,N$22*%
X30480000Y-41910000D03*
%TO.P,J2,12*%
%TO.N,N$23*%
X27940000Y-41910000D03*
%TO.P,J2,13*%
%TO.N,N$24*%
X30480000Y-39370000D03*
%TO.P,J2,14*%
%TO.N,GND*%
X27940000Y-39370000D03*
%TO.P,J2,15*%
%TO.N,N$25*%
X30480000Y-36830000D03*
%TO.P,J2,16*%
%TO.N,N$1*%
X27940000Y-36830000D03*
%TO.P,J2,17*%
%TO.N,3V3*%
X30480000Y-34290000D03*
%TO.P,J2,18*%
%TO.N,N$2*%
X27940000Y-34290000D03*
%TO.P,J2,19*%
%TO.N,N$26*%
X30480000Y-31750000D03*
%TO.P,J2,20*%
%TO.N,GND*%
X27940000Y-31750000D03*
%TO.P,J2,21*%
%TO.N,N$27*%
X30480000Y-29210000D03*
%TO.P,J2,22*%
%TO.N,N$28*%
X27940000Y-29210000D03*
%TO.P,J2,23*%
%TO.N,N$29*%
X30480000Y-26670000D03*
%TO.P,J2,24*%
%TO.N,N$30*%
X27940000Y-26670000D03*
%TO.P,J2,25*%
%TO.N,GND*%
X30480000Y-24130000D03*
%TO.P,J2,26*%
%TO.N,N$31*%
X27940000Y-24130000D03*
%TD*%
D12*
%TO.P,J3,1*%
%TO.N,N$1*%
X24130000Y-36830000D03*
D13*
%TO.P,J3,2*%
%TO.N,N$2*%
X24130000Y-34290000D03*
%TO.P,J3,3*%
%TO.N,3V3*%
X24130000Y-31750000D03*
%TO.P,J3,4*%
%TO.N,GND*%
X24130000Y-29210000D03*
%TD*%
D12*
%TO.P,J4,1*%
%TO.N,N$3*%
X40640000Y-21590000D03*
D13*
%TO.P,J4,2*%
%TO.N,N$5*%
X40640000Y-24130000D03*
%TO.P,J4,3*%
%TO.N,N$7*%
X40640000Y-26670000D03*
%TO.P,J4,4*%
%TO.N,N$9*%
X40640000Y-29210000D03*
%TO.P,J4,5*%
%TO.N,N$11*%
X40640000Y-31750000D03*
%TO.P,J4,6*%
%TO.N,N$13*%
X40640000Y-34290000D03*
%TO.P,J4,7*%
%TO.N,N$15*%
X40640000Y-36830000D03*
%TD*%
%TO.P,J5,7*%
%TO.N,N$16*%
X55880000Y-36830000D03*
%TO.P,J5,6*%
%TO.N,N$14*%
X55880000Y-34290000D03*
%TO.P,J5,5*%
%TO.N,N$12*%
X55880000Y-31750000D03*
%TO.P,J5,4*%
%TO.N,N$10*%
X55880000Y-29210000D03*
%TO.P,J5,3*%
%TO.N,N$8*%
X55880000Y-26670000D03*
%TO.P,J5,2*%
%TO.N,N$6*%
X55880000Y-24130000D03*
D12*
%TO.P,J5,1*%
%TO.N,N$4*%
X55880000Y-21590000D03*
%TD*%
D14*
%TO.P,U1,1*%
%TO.N,N$3*%
X44450000Y-21590000D03*
D15*
%TO.P,U1,9*%
%TO.N,GND*%
X52070000Y-39370000D03*
%TO.P,U1,2*%
%TO.N,N$5*%
X44450000Y-24130000D03*
%TO.P,U1,10*%
%TO.N,N$16*%
X52070000Y-36830000D03*
%TO.P,U1,3*%
%TO.N,N$7*%
X44450000Y-26670000D03*
%TO.P,U1,11*%
%TO.N,N$14*%
X52070000Y-34290000D03*
%TO.P,U1,4*%
%TO.N,N$9*%
X44450000Y-29210000D03*
%TO.P,U1,12*%
%TO.N,N$12*%
X52070000Y-31750000D03*
%TO.P,U1,5*%
%TO.N,N$11*%
X44450000Y-31750000D03*
%TO.P,U1,13*%
%TO.N,N$10*%
X52070000Y-29210000D03*
%TO.P,U1,6*%
%TO.N,N$13*%
X44450000Y-34290000D03*
%TO.P,U1,14*%
%TO.N,N$8*%
X52070000Y-26670000D03*
%TO.P,U1,7*%
%TO.N,N$15*%
X44450000Y-36830000D03*
%TO.P,U1,15*%
%TO.N,N$6*%
X52070000Y-24130000D03*
%TO.P,U1,8*%
%TO.N,GND*%
X44450000Y-39370000D03*
%TO.P,U1,16*%
%TO.N,N$4*%
X52070000Y-21590000D03*
%TD*%
D12*
%TO.P,J6,1*%
%TO.N,N$17*%
X35560000Y-57150000D03*
D13*
%TO.P,J6,2*%
%TO.N,N$18*%
X35560000Y-54610000D03*
%TO.P,J6,3*%
%TO.N,N$19*%
X35560000Y-52070000D03*
%TO.P,J6,4*%
%TO.N,N$20*%
X35560000Y-49530000D03*
%TO.P,J6,5*%
%TO.N,N$21*%
X35560000Y-46990000D03*
%TO.P,J6,6*%
%TO.N,N$22*%
X35560000Y-44450000D03*
%TO.P,J6,7*%
%TO.N,N$23*%
X35560000Y-41910000D03*
%TO.P,J6,8*%
%TO.N,N$24*%
X35560000Y-39370000D03*
%TO.P,J6,9*%
%TO.N,N$25*%
X35560000Y-36830000D03*
%TO.P,J6,10*%
%TO.N,N$26*%
X35560000Y-34290000D03*
%TO.P,J6,11*%
%TO.N,N$27*%
X35560000Y-31750000D03*
%TO.P,J6,12*%
%TO.N,N$28*%
X35560000Y-29210000D03*
%TO.P,J6,13*%
%TO.N,N$29*%
X35560000Y-26670000D03*
%TO.P,J6,14*%
%TO.N,N$30*%
X35560000Y-24130000D03*
%TO.P,J6,15*%
%TO.N,N$31*%
X35560000Y-21590000D03*
%TD*%
D16*
%TO.P,J7,1*%
%TO.N,N$4*%
X66040000Y-19050000D03*
D17*
%TO.P,J7,2*%
%TO.N,N$6*%
X66040000Y-24050000D03*
%TO.P,J7,3*%
%TO.N,N$8*%
X66040000Y-29050000D03*
%TD*%
%TO.P,J8,3*%
%TO.N,N$14*%
X66040000Y-44450000D03*
%TO.P,J8,2*%
%TO.N,N$12*%
X66040000Y-39450000D03*
D16*
%TO.P,J8,1*%
%TO.N,N$10*%
X66040000Y-34450000D03*
%TD*%
%TO.P,J9,1*%
%TO.N,N$16*%
X66040000Y-49530000D03*
D17*
%TO.P,J9,2*%
%TO.N,VREL*%
X66040000Y-54530000D03*
%TO.P,J9,3*%
X66040000Y-59530000D03*
%TD*%
D18*
%TO.N,GND*%
X24130000Y-45720000D03*
X24130000Y-25400000D03*
%TO.N,5V*%
X41990000Y-60960000D03*
X27940000Y-60960000D03*
%TO.N,3V3*%
X33020000Y-35560000D03*
X33020000Y-57150000D03*
%TD*%
D19*
%TO.N,VREL*%
X54450000Y-54530000D02*
X51990000Y-52070000D01*
X66040000Y-54530000D02*
X54450000Y-54530000D01*
X66040000Y-59530000D02*
X66040000Y-54530000D01*
D20*
%TO.N,GND*%
X30480000Y-44450000D02*
X29790002Y-44450000D01*
X25400000Y-45720000D02*
X25400000Y-49530000D01*
D21*
%TO.N,5V*%
X27940000Y-54610000D02*
X27940000Y-52070000D01*
X41990000Y-52070000D02*
X41990000Y-60960000D01*
X27940000Y-60960000D02*
X27940000Y-54610000D01*
D20*
%TO.N,3V3*%
X24130000Y-31750000D02*
X25400000Y-33020000D01*
X25400000Y-33020000D02*
X29210000Y-33020000D01*
X29210000Y-33020000D02*
X30480000Y-34290000D01*
X30480000Y-34290000D02*
X31750000Y-34290000D01*
X31750000Y-34290000D02*
X33020000Y-35560000D01*
X33020000Y-57150000D02*
X30480000Y-54610000D01*
D21*
%TO.N,N$1*%
X24130000Y-36830000D02*
X27940000Y-36830000D01*
%TO.N,N$2*%
X24130000Y-34290000D02*
X27940000Y-34290000D01*
%TO.N,N$3*%
X40640000Y-21590000D02*
X44450000Y-21590000D01*
%TO.N,N$5*%
X40640000Y-24130000D02*
X44450000Y-24130000D01*
%TO.N,N$7*%
X40640000Y-26670000D02*
X44450000Y-26670000D01*
%TO.N,N$9*%
X40640000Y-29210000D02*
X44450000Y-29210000D01*
%TO.N,N$11*%
X40640000Y-31750000D02*
X44450000Y-31750000D01*
%TO.N,N$13*%
X40640000Y-34290000D02*
X44450000Y-34290000D01*
%TO.N,N$15*%
X40640000Y-36830000D02*
X44450000Y-36830000D01*
%TO.N,N$16*%
X52070000Y-36830000D02*
X55880000Y-36830000D01*
D19*
X55880000Y-39370000D02*
X55880000Y-36830000D01*
X66040000Y-49530000D02*
X55880000Y-39370000D01*
D21*
%TO.N,N$14*%
X52070000Y-34290000D02*
X55880000Y-34290000D01*
D19*
X66040000Y-44450000D02*
X55880000Y-34290000D01*
D21*
%TO.N,N$12*%
X52070000Y-31750000D02*
X55880000Y-31750000D01*
D19*
X63580000Y-39450000D02*
X55880000Y-31750000D01*
X66040000Y-39450000D02*
X63580000Y-39450000D01*
D21*
%TO.N,N$10*%
X52070000Y-29210000D02*
X55880000Y-29210000D01*
D19*
X66040000Y-34450000D02*
X63340000Y-31750000D01*
X58420000Y-31750000D02*
X55880000Y-29210000D01*
X63340000Y-31750000D02*
X58420000Y-31750000D01*
D21*
%TO.N,N$8*%
X52070000Y-26670000D02*
X55880000Y-26670000D01*
D19*
X63660000Y-26670000D02*
X66040000Y-29050000D01*
X55880000Y-26670000D02*
X63660000Y-26670000D01*
D21*
%TO.N,N$6*%
X52070000Y-24130000D02*
X55880000Y-24130000D01*
D19*
X65960000Y-24130000D02*
X66040000Y-24050000D01*
X55880000Y-24130000D02*
X65960000Y-24130000D01*
D21*
%TO.N,N$4*%
X52070000Y-21590000D02*
X55880000Y-21590000D01*
D19*
X63500000Y-21590000D02*
X66040000Y-19050000D01*
X55880000Y-21590000D02*
X63500000Y-21590000D01*
D21*
%TO.N,N$17*%
X33020000Y-54610000D02*
X35560000Y-57150000D01*
X33020000Y-53340000D02*
X33020000Y-54610000D01*
X31750000Y-52070000D02*
X33020000Y-53340000D01*
X30480000Y-52070000D02*
X31750000Y-52070000D01*
%TO.N,N$18*%
X31784001Y-50834001D02*
X35560000Y-54610000D01*
X30480000Y-49530000D02*
X31784001Y-50834001D01*
%TO.N,N$19*%
X30480000Y-46990000D02*
X35560000Y-52070000D01*
D20*
%TO.N,N$20*%
X29368544Y-45720000D02*
X31750000Y-45720000D01*
X27940000Y-46990000D02*
X28098544Y-46990000D01*
X28098544Y-46990000D02*
X29368544Y-45720000D01*
X31750000Y-45720000D02*
X35560000Y-49530000D01*
%TO.N,N$21*%
X27940000Y-44450000D02*
X29210000Y-43180000D01*
X31750000Y-43180000D02*
X35560000Y-46990000D01*
X29210000Y-43180000D02*
X31750000Y-43180000D01*
%TO.N,N$22*%
X33020000Y-41910000D02*
X35560000Y-44450000D01*
X30480000Y-41910000D02*
X33020000Y-41910000D01*
%TO.N,N$23*%
X34309999Y-40659999D02*
X35560000Y-41910000D01*
X29190001Y-40659999D02*
X34309999Y-40659999D01*
X27940000Y-41910000D02*
X29190001Y-40659999D01*
%TO.N,N$24*%
X30480000Y-39370000D02*
X35560000Y-39370000D01*
%TO.N,N$25*%
X30480000Y-36830000D02*
X35560000Y-36830000D01*
%TO.N,N$26*%
X30480000Y-31750000D02*
X33020000Y-34290000D01*
X33020000Y-34290000D02*
X35560000Y-34290000D01*
%TO.N,N$27*%
X33020000Y-29210000D02*
X35560000Y-31750000D01*
X30480000Y-29210000D02*
X33020000Y-29210000D01*
%TO.N,N$28*%
X27940000Y-29210000D02*
X29210000Y-27940000D01*
X34290000Y-27940000D02*
X35560000Y-29210000D01*
X29210000Y-27940000D02*
X34290000Y-27940000D01*
%TO.N,N$29*%
X30480000Y-26670000D02*
X35560000Y-26670000D01*
%TO.N,N$30*%
X29190001Y-25419999D02*
X34270001Y-25419999D01*
X27940000Y-26670000D02*
X29190001Y-25419999D01*
X34270001Y-25419999D02*
X35560000Y-24130000D01*
%TO.N,N$31*%
X27940000Y-24130000D02*
X30480000Y-21590000D01*
X30480000Y-21590000D02*
X35560000Y-21590000D01*
%TD*%
D22*
%TO.N,GND*%
G36*
X71730000Y-61570000D02*
G01*
X43344682Y-61570000D01*
X43417932Y-61393158D01*
X43475000Y-61106260D01*
X43475000Y-60813740D01*
X43417932Y-60526842D01*
X43305990Y-60256589D01*
X43143475Y-60013368D01*
X42936632Y-59806525D01*
X42879000Y-59768017D01*
X42879000Y-54427387D01*
X42897169Y-54417675D01*
X43144608Y-54214608D01*
X43347675Y-53967170D01*
X43498568Y-53684869D01*
X43591487Y-53378556D01*
X43615000Y-53139824D01*
X43615000Y-52197000D01*
X45365000Y-52197000D01*
X45365000Y-53187000D01*
X45421000Y-53501582D01*
X45537296Y-53799194D01*
X45709419Y-54068399D01*
X45930754Y-54298852D01*
X46192795Y-54481696D01*
X46485472Y-54609905D01*
X46611135Y-54640218D01*
X46863000Y-54520740D01*
X46863000Y-52197000D01*
X47117000Y-52197000D01*
X47117000Y-54520740D01*
X47368865Y-54640218D01*
X47494528Y-54609905D01*
X47787205Y-54481696D01*
X48049246Y-54298852D01*
X48270581Y-54068399D01*
X48442704Y-53799194D01*
X48559000Y-53501582D01*
X48615000Y-53187000D01*
X48615000Y-52197000D01*
X47117000Y-52197000D01*
X46863000Y-52197000D01*
X45365000Y-52197000D01*
X43615000Y-52197000D01*
X43615000Y-51000176D01*
X43610354Y-50953000D01*
X45365000Y-50953000D01*
X45365000Y-51943000D01*
X46863000Y-51943000D01*
X46863000Y-49619260D01*
X47117000Y-49619260D01*
X47117000Y-51943000D01*
X48615000Y-51943000D01*
X48615000Y-50953000D01*
X48559000Y-50638418D01*
X48442704Y-50340806D01*
X48282345Y-50090000D01*
X50361928Y-50090000D01*
X50361928Y-54050000D01*
X50374188Y-54174482D01*
X50410498Y-54294180D01*
X50469463Y-54404494D01*
X50548815Y-54501185D01*
X50645506Y-54580537D01*
X50755820Y-54639502D01*
X50875518Y-54675812D01*
X51000000Y-54688072D01*
X52980000Y-54688072D01*
X53104482Y-54675812D01*
X53224180Y-54639502D01*
X53232673Y-54634962D01*
X53756374Y-55158664D01*
X53785656Y-55194344D01*
X53928028Y-55311186D01*
X54090460Y-55398007D01*
X54213243Y-55435253D01*
X54266707Y-55451471D01*
X54449999Y-55469524D01*
X54495931Y-55465000D01*
X63715164Y-55465000D01*
X63895392Y-55684608D01*
X64142830Y-55887675D01*
X64425131Y-56038568D01*
X64731444Y-56131487D01*
X64970176Y-56155000D01*
X65105001Y-56155000D01*
X65105000Y-57905000D01*
X64970176Y-57905000D01*
X64731444Y-57928513D01*
X64425131Y-58021432D01*
X64142830Y-58172325D01*
X63895392Y-58375392D01*
X63692325Y-58622830D01*
X63541432Y-58905131D01*
X63448513Y-59211444D01*
X63417138Y-59530000D01*
X63448513Y-59848556D01*
X63541432Y-60154869D01*
X63692325Y-60437170D01*
X63895392Y-60684608D01*
X64142830Y-60887675D01*
X64425131Y-61038568D01*
X64731444Y-61131487D01*
X64970176Y-61155000D01*
X67109824Y-61155000D01*
X67348556Y-61131487D01*
X67654869Y-61038568D01*
X67937170Y-60887675D01*
X68184608Y-60684608D01*
X68387675Y-60437170D01*
X68538568Y-60154869D01*
X68631487Y-59848556D01*
X68662862Y-59530000D01*
X68631487Y-59211444D01*
X68538568Y-58905131D01*
X68387675Y-58622830D01*
X68184608Y-58375392D01*
X67937170Y-58172325D01*
X67654869Y-58021432D01*
X67348556Y-57928513D01*
X67109824Y-57905000D01*
X66975000Y-57905000D01*
X66975000Y-56155000D01*
X67109824Y-56155000D01*
X67348556Y-56131487D01*
X67654869Y-56038568D01*
X67937170Y-55887675D01*
X68184608Y-55684608D01*
X68387675Y-55437170D01*
X68538568Y-55154869D01*
X68631487Y-54848556D01*
X68662862Y-54530000D01*
X68631487Y-54211444D01*
X68538568Y-53905131D01*
X68387675Y-53622830D01*
X68184608Y-53375392D01*
X67937170Y-53172325D01*
X67654869Y-53021432D01*
X67348556Y-52928513D01*
X67109824Y-52905000D01*
X64970176Y-52905000D01*
X64731444Y-52928513D01*
X64425131Y-53021432D01*
X64142830Y-53172325D01*
X63895392Y-53375392D01*
X63715164Y-53595000D01*
X54837290Y-53595000D01*
X53618072Y-52375783D01*
X53618072Y-50090000D01*
X53605812Y-49965518D01*
X53569502Y-49845820D01*
X53510537Y-49735506D01*
X53431185Y-49638815D01*
X53334494Y-49559463D01*
X53224180Y-49500498D01*
X53104482Y-49464188D01*
X52980000Y-49451928D01*
X51000000Y-49451928D01*
X50875518Y-49464188D01*
X50755820Y-49500498D01*
X50645506Y-49559463D01*
X50548815Y-49638815D01*
X50469463Y-49735506D01*
X50410498Y-49845820D01*
X50374188Y-49965518D01*
X50361928Y-50090000D01*
X48282345Y-50090000D01*
X48270581Y-50071601D01*
X48049246Y-49841148D01*
X47787205Y-49658304D01*
X47494528Y-49530095D01*
X47368865Y-49499782D01*
X47117000Y-49619260D01*
X46863000Y-49619260D01*
X46611135Y-49499782D01*
X46485472Y-49530095D01*
X46192795Y-49658304D01*
X45930754Y-49841148D01*
X45709419Y-50071601D01*
X45537296Y-50340806D01*
X45421000Y-50638418D01*
X45365000Y-50953000D01*
X43610354Y-50953000D01*
X43591487Y-50761444D01*
X43498568Y-50455131D01*
X43347675Y-50172830D01*
X43144608Y-49925392D01*
X42897170Y-49722325D01*
X42614869Y-49571432D01*
X42308556Y-49478513D01*
X41990000Y-49447138D01*
X41671445Y-49478513D01*
X41365132Y-49571432D01*
X41082831Y-49722325D01*
X40835393Y-49925392D01*
X40632326Y-50172830D01*
X40481433Y-50455131D01*
X40388514Y-50761444D01*
X40365001Y-51000176D01*
X40365000Y-53139823D01*
X40388513Y-53378555D01*
X40481432Y-53684868D01*
X40632325Y-53967169D01*
X40835392Y-54214608D01*
X41082830Y-54417675D01*
X41101000Y-54427387D01*
X41101001Y-59768016D01*
X41043368Y-59806525D01*
X40836525Y-60013368D01*
X40674010Y-60256589D01*
X40562068Y-60526842D01*
X40505000Y-60813740D01*
X40505000Y-61106260D01*
X40562068Y-61393158D01*
X40635318Y-61570000D01*
X29294682Y-61570000D01*
X29367932Y-61393158D01*
X29425000Y-61106260D01*
X29425000Y-60813740D01*
X29367932Y-60526842D01*
X29255990Y-60256589D01*
X29093475Y-60013368D01*
X28886632Y-59806525D01*
X28829000Y-59768017D01*
X28829000Y-55801983D01*
X28886632Y-55763475D01*
X29018487Y-55631620D01*
X29040498Y-55704180D01*
X29099463Y-55814494D01*
X29178815Y-55911185D01*
X29275506Y-55990537D01*
X29385820Y-56049502D01*
X29505518Y-56085812D01*
X29630000Y-56098072D01*
X30787205Y-56098072D01*
X31561193Y-56872061D01*
X31535000Y-57003740D01*
X31535000Y-57296260D01*
X31592068Y-57583158D01*
X31704010Y-57853411D01*
X31866525Y-58096632D01*
X32073368Y-58303475D01*
X32316589Y-58465990D01*
X32586842Y-58577932D01*
X32873740Y-58635000D01*
X33166260Y-58635000D01*
X33453158Y-58577932D01*
X33723411Y-58465990D01*
X33966632Y-58303475D01*
X34098487Y-58171620D01*
X34120498Y-58244180D01*
X34179463Y-58354494D01*
X34258815Y-58451185D01*
X34355506Y-58530537D01*
X34465820Y-58589502D01*
X34585518Y-58625812D01*
X34710000Y-58638072D01*
X36410000Y-58638072D01*
X36534482Y-58625812D01*
X36654180Y-58589502D01*
X36764494Y-58530537D01*
X36861185Y-58451185D01*
X36940537Y-58354494D01*
X36999502Y-58244180D01*
X37035812Y-58124482D01*
X37048072Y-58000000D01*
X37048072Y-56300000D01*
X37035812Y-56175518D01*
X36999502Y-56055820D01*
X36940537Y-55945506D01*
X36861185Y-55848815D01*
X36764494Y-55769463D01*
X36654180Y-55710498D01*
X36581620Y-55688487D01*
X36713475Y-55556632D01*
X36875990Y-55313411D01*
X36987932Y-55043158D01*
X37045000Y-54756260D01*
X37045000Y-54463740D01*
X36987932Y-54176842D01*
X36875990Y-53906589D01*
X36713475Y-53663368D01*
X36506632Y-53456525D01*
X36332240Y-53340000D01*
X36506632Y-53223475D01*
X36713475Y-53016632D01*
X36875990Y-52773411D01*
X36987932Y-52503158D01*
X37045000Y-52216260D01*
X37045000Y-51923740D01*
X36987932Y-51636842D01*
X36875990Y-51366589D01*
X36713475Y-51123368D01*
X36506632Y-50916525D01*
X36332240Y-50800000D01*
X36506632Y-50683475D01*
X36713475Y-50476632D01*
X36875990Y-50233411D01*
X36987932Y-49963158D01*
X37045000Y-49676260D01*
X37045000Y-49383740D01*
X36987932Y-49096842D01*
X36875990Y-48826589D01*
X36713475Y-48583368D01*
X36506632Y-48376525D01*
X36332240Y-48260000D01*
X36506632Y-48143475D01*
X36713475Y-47936632D01*
X36875990Y-47693411D01*
X36987932Y-47423158D01*
X37045000Y-47136260D01*
X37045000Y-46843740D01*
X36987932Y-46556842D01*
X36875990Y-46286589D01*
X36713475Y-46043368D01*
X36506632Y-45836525D01*
X36332240Y-45720000D01*
X36506632Y-45603475D01*
X36713475Y-45396632D01*
X36875990Y-45153411D01*
X36987932Y-44883158D01*
X37045000Y-44596260D01*
X37045000Y-44303740D01*
X36987932Y-44016842D01*
X36875990Y-43746589D01*
X36713475Y-43503368D01*
X36506632Y-43296525D01*
X36332240Y-43180000D01*
X36506632Y-43063475D01*
X36713475Y-42856632D01*
X36875990Y-42613411D01*
X36987932Y-42343158D01*
X37045000Y-42056260D01*
X37045000Y-41763740D01*
X36987932Y-41476842D01*
X36875990Y-41206589D01*
X36713475Y-40963368D01*
X36506632Y-40756525D01*
X36332240Y-40640000D01*
X36506632Y-40523475D01*
X36713475Y-40316632D01*
X36875990Y-40073411D01*
X36987932Y-39803158D01*
X37004664Y-39719039D01*
X42658096Y-39719039D01*
X42675633Y-39801818D01*
X42786285Y-40061646D01*
X42945500Y-40294895D01*
X43147161Y-40492601D01*
X43383517Y-40647166D01*
X43645486Y-40752650D01*
X43923000Y-40805000D01*
X44323000Y-40805000D01*
X44323000Y-39497000D01*
X44577000Y-39497000D01*
X44577000Y-40805000D01*
X44977000Y-40805000D01*
X45254514Y-40752650D01*
X45516483Y-40647166D01*
X45752839Y-40492601D01*
X45954500Y-40294895D01*
X46113715Y-40061646D01*
X46224367Y-39801818D01*
X46241904Y-39719039D01*
X50278096Y-39719039D01*
X50295633Y-39801818D01*
X50406285Y-40061646D01*
X50565500Y-40294895D01*
X50767161Y-40492601D01*
X51003517Y-40647166D01*
X51265486Y-40752650D01*
X51543000Y-40805000D01*
X51943000Y-40805000D01*
X51943000Y-39497000D01*
X52197000Y-39497000D01*
X52197000Y-40805000D01*
X52597000Y-40805000D01*
X52874514Y-40752650D01*
X53136483Y-40647166D01*
X53372839Y-40492601D01*
X53574500Y-40294895D01*
X53733715Y-40061646D01*
X53844367Y-39801818D01*
X53861904Y-39719039D01*
X53739915Y-39497000D01*
X52197000Y-39497000D01*
X51943000Y-39497000D01*
X50400085Y-39497000D01*
X50278096Y-39719039D01*
X46241904Y-39719039D01*
X46119915Y-39497000D01*
X44577000Y-39497000D01*
X44323000Y-39497000D01*
X42780085Y-39497000D01*
X42658096Y-39719039D01*
X37004664Y-39719039D01*
X37045000Y-39516260D01*
X37045000Y-39223740D01*
X36987932Y-38936842D01*
X36875990Y-38666589D01*
X36713475Y-38423368D01*
X36506632Y-38216525D01*
X36332240Y-38100000D01*
X36506632Y-37983475D01*
X36713475Y-37776632D01*
X36875990Y-37533411D01*
X36987932Y-37263158D01*
X37045000Y-36976260D01*
X37045000Y-36683740D01*
X36987932Y-36396842D01*
X36875990Y-36126589D01*
X36713475Y-35883368D01*
X36506632Y-35676525D01*
X36332240Y-35560000D01*
X36506632Y-35443475D01*
X36713475Y-35236632D01*
X36875990Y-34993411D01*
X36987932Y-34723158D01*
X37045000Y-34436260D01*
X37045000Y-34143740D01*
X36987932Y-33856842D01*
X36875990Y-33586589D01*
X36713475Y-33343368D01*
X36506632Y-33136525D01*
X36332240Y-33020000D01*
X36506632Y-32903475D01*
X36713475Y-32696632D01*
X36875990Y-32453411D01*
X36987932Y-32183158D01*
X37045000Y-31896260D01*
X37045000Y-31603740D01*
X36987932Y-31316842D01*
X36875990Y-31046589D01*
X36713475Y-30803368D01*
X36506632Y-30596525D01*
X36332240Y-30480000D01*
X36506632Y-30363475D01*
X36713475Y-30156632D01*
X36875990Y-29913411D01*
X36987932Y-29643158D01*
X37045000Y-29356260D01*
X37045000Y-29063740D01*
X36987932Y-28776842D01*
X36875990Y-28506589D01*
X36713475Y-28263368D01*
X36506632Y-28056525D01*
X36332240Y-27940000D01*
X36506632Y-27823475D01*
X36713475Y-27616632D01*
X36875990Y-27373411D01*
X36987932Y-27103158D01*
X37045000Y-26816260D01*
X37045000Y-26523740D01*
X36987932Y-26236842D01*
X36875990Y-25966589D01*
X36713475Y-25723368D01*
X36506632Y-25516525D01*
X36332240Y-25400000D01*
X36506632Y-25283475D01*
X36713475Y-25076632D01*
X36875990Y-24833411D01*
X36987932Y-24563158D01*
X37045000Y-24276260D01*
X37045000Y-23983740D01*
X36987932Y-23696842D01*
X36875990Y-23426589D01*
X36713475Y-23183368D01*
X36506632Y-22976525D01*
X36332240Y-22860000D01*
X36506632Y-22743475D01*
X36713475Y-22536632D01*
X36875990Y-22293411D01*
X36987932Y-22023158D01*
X37045000Y-21736260D01*
X37045000Y-21443740D01*
X36987932Y-21156842D01*
X36875990Y-20886589D01*
X36778043Y-20740000D01*
X39151928Y-20740000D01*
X39151928Y-22440000D01*
X39164188Y-22564482D01*
X39200498Y-22684180D01*
X39259463Y-22794494D01*
X39338815Y-22891185D01*
X39435506Y-22970537D01*
X39545820Y-23029502D01*
X39618380Y-23051513D01*
X39486525Y-23183368D01*
X39324010Y-23426589D01*
X39212068Y-23696842D01*
X39155000Y-23983740D01*
X39155000Y-24276260D01*
X39212068Y-24563158D01*
X39324010Y-24833411D01*
X39486525Y-25076632D01*
X39693368Y-25283475D01*
X39867760Y-25400000D01*
X39693368Y-25516525D01*
X39486525Y-25723368D01*
X39324010Y-25966589D01*
X39212068Y-26236842D01*
X39155000Y-26523740D01*
X39155000Y-26816260D01*
X39212068Y-27103158D01*
X39324010Y-27373411D01*
X39486525Y-27616632D01*
X39693368Y-27823475D01*
X39867760Y-27940000D01*
X39693368Y-28056525D01*
X39486525Y-28263368D01*
X39324010Y-28506589D01*
X39212068Y-28776842D01*
X39155000Y-29063740D01*
X39155000Y-29356260D01*
X39212068Y-29643158D01*
X39324010Y-29913411D01*
X39486525Y-30156632D01*
X39693368Y-30363475D01*
X39867760Y-30480000D01*
X39693368Y-30596525D01*
X39486525Y-30803368D01*
X39324010Y-31046589D01*
X39212068Y-31316842D01*
X39155000Y-31603740D01*
X39155000Y-31896260D01*
X39212068Y-32183158D01*
X39324010Y-32453411D01*
X39486525Y-32696632D01*
X39693368Y-32903475D01*
X39867760Y-33020000D01*
X39693368Y-33136525D01*
X39486525Y-33343368D01*
X39324010Y-33586589D01*
X39212068Y-33856842D01*
X39155000Y-34143740D01*
X39155000Y-34436260D01*
X39212068Y-34723158D01*
X39324010Y-34993411D01*
X39486525Y-35236632D01*
X39693368Y-35443475D01*
X39867760Y-35560000D01*
X39693368Y-35676525D01*
X39486525Y-35883368D01*
X39324010Y-36126589D01*
X39212068Y-36396842D01*
X39155000Y-36683740D01*
X39155000Y-36976260D01*
X39212068Y-37263158D01*
X39324010Y-37533411D01*
X39486525Y-37776632D01*
X39693368Y-37983475D01*
X39936589Y-38145990D01*
X40206842Y-38257932D01*
X40493740Y-38315000D01*
X40786260Y-38315000D01*
X41073158Y-38257932D01*
X41343411Y-38145990D01*
X41586632Y-37983475D01*
X41793475Y-37776632D01*
X41831983Y-37719000D01*
X42923205Y-37719000D01*
X43030392Y-37849608D01*
X43248899Y-38028932D01*
X43376741Y-38097265D01*
X43147161Y-38247399D01*
X42945500Y-38445105D01*
X42786285Y-38678354D01*
X42675633Y-38938182D01*
X42658096Y-39020961D01*
X42780085Y-39243000D01*
X44323000Y-39243000D01*
X44323000Y-39223000D01*
X44577000Y-39223000D01*
X44577000Y-39243000D01*
X46119915Y-39243000D01*
X46241904Y-39020961D01*
X46224367Y-38938182D01*
X46113715Y-38678354D01*
X45954500Y-38445105D01*
X45752839Y-38247399D01*
X45523259Y-38097265D01*
X45651101Y-38028932D01*
X45869608Y-37849608D01*
X46048932Y-37631101D01*
X46182182Y-37381808D01*
X46264236Y-37111309D01*
X46291943Y-36830000D01*
X46264236Y-36548691D01*
X46182182Y-36278192D01*
X46048932Y-36028899D01*
X45869608Y-35810392D01*
X45651101Y-35631068D01*
X45518142Y-35560000D01*
X45651101Y-35488932D01*
X45869608Y-35309608D01*
X46048932Y-35091101D01*
X46182182Y-34841808D01*
X46264236Y-34571309D01*
X46291943Y-34290000D01*
X46264236Y-34008691D01*
X46182182Y-33738192D01*
X46048932Y-33488899D01*
X45869608Y-33270392D01*
X45651101Y-33091068D01*
X45518142Y-33020000D01*
X45651101Y-32948932D01*
X45869608Y-32769608D01*
X46048932Y-32551101D01*
X46182182Y-32301808D01*
X46264236Y-32031309D01*
X46291943Y-31750000D01*
X46264236Y-31468691D01*
X46182182Y-31198192D01*
X46048932Y-30948899D01*
X45869608Y-30730392D01*
X45651101Y-30551068D01*
X45518142Y-30480000D01*
X45651101Y-30408932D01*
X45869608Y-30229608D01*
X46048932Y-30011101D01*
X46182182Y-29761808D01*
X46264236Y-29491309D01*
X46291943Y-29210000D01*
X46264236Y-28928691D01*
X46182182Y-28658192D01*
X46048932Y-28408899D01*
X45869608Y-28190392D01*
X45651101Y-28011068D01*
X45518142Y-27940000D01*
X45651101Y-27868932D01*
X45869608Y-27689608D01*
X46048932Y-27471101D01*
X46182182Y-27221808D01*
X46264236Y-26951309D01*
X46291943Y-26670000D01*
X46264236Y-26388691D01*
X46182182Y-26118192D01*
X46048932Y-25868899D01*
X45869608Y-25650392D01*
X45651101Y-25471068D01*
X45518142Y-25400000D01*
X45651101Y-25328932D01*
X45869608Y-25149608D01*
X46048932Y-24931101D01*
X46182182Y-24681808D01*
X46264236Y-24411309D01*
X46291943Y-24130000D01*
X46264236Y-23848691D01*
X46182182Y-23578192D01*
X46048932Y-23328899D01*
X45869608Y-23110392D01*
X45756518Y-23017581D01*
X45774482Y-23015812D01*
X45894180Y-22979502D01*
X46004494Y-22920537D01*
X46101185Y-22841185D01*
X46180537Y-22744494D01*
X46239502Y-22634180D01*
X46275812Y-22514482D01*
X46288072Y-22390000D01*
X46288072Y-21590000D01*
X50228057Y-21590000D01*
X50255764Y-21871309D01*
X50337818Y-22141808D01*
X50471068Y-22391101D01*
X50650392Y-22609608D01*
X50868899Y-22788932D01*
X51001858Y-22860000D01*
X50868899Y-22931068D01*
X50650392Y-23110392D01*
X50471068Y-23328899D01*
X50337818Y-23578192D01*
X50255764Y-23848691D01*
X50228057Y-24130000D01*
X50255764Y-24411309D01*
X50337818Y-24681808D01*
X50471068Y-24931101D01*
X50650392Y-25149608D01*
X50868899Y-25328932D01*
X51001858Y-25400000D01*
X50868899Y-25471068D01*
X50650392Y-25650392D01*
X50471068Y-25868899D01*
X50337818Y-26118192D01*
X50255764Y-26388691D01*
X50228057Y-26670000D01*
X50255764Y-26951309D01*
X50337818Y-27221808D01*
X50471068Y-27471101D01*
X50650392Y-27689608D01*
X50868899Y-27868932D01*
X51001858Y-27940000D01*
X50868899Y-28011068D01*
X50650392Y-28190392D01*
X50471068Y-28408899D01*
X50337818Y-28658192D01*
X50255764Y-28928691D01*
X50228057Y-29210000D01*
X50255764Y-29491309D01*
X50337818Y-29761808D01*
X50471068Y-30011101D01*
X50650392Y-30229608D01*
X50868899Y-30408932D01*
X51001858Y-30480000D01*
X50868899Y-30551068D01*
X50650392Y-30730392D01*
X50471068Y-30948899D01*
X50337818Y-31198192D01*
X50255764Y-31468691D01*
X50228057Y-31750000D01*
X50255764Y-32031309D01*
X50337818Y-32301808D01*
X50471068Y-32551101D01*
X50650392Y-32769608D01*
X50868899Y-32948932D01*
X51001858Y-33020000D01*
X50868899Y-33091068D01*
X50650392Y-33270392D01*
X50471068Y-33488899D01*
X50337818Y-33738192D01*
X50255764Y-34008691D01*
X50228057Y-34290000D01*
X50255764Y-34571309D01*
X50337818Y-34841808D01*
X50471068Y-35091101D01*
X50650392Y-35309608D01*
X50868899Y-35488932D01*
X51001858Y-35560000D01*
X50868899Y-35631068D01*
X50650392Y-35810392D01*
X50471068Y-36028899D01*
X50337818Y-36278192D01*
X50255764Y-36548691D01*
X50228057Y-36830000D01*
X50255764Y-37111309D01*
X50337818Y-37381808D01*
X50471068Y-37631101D01*
X50650392Y-37849608D01*
X50868899Y-38028932D01*
X50996741Y-38097265D01*
X50767161Y-38247399D01*
X50565500Y-38445105D01*
X50406285Y-38678354D01*
X50295633Y-38938182D01*
X50278096Y-39020961D01*
X50400085Y-39243000D01*
X51943000Y-39243000D01*
X51943000Y-39223000D01*
X52197000Y-39223000D01*
X52197000Y-39243000D01*
X53739915Y-39243000D01*
X53861904Y-39020961D01*
X53844367Y-38938182D01*
X53733715Y-38678354D01*
X53574500Y-38445105D01*
X53372839Y-38247399D01*
X53143259Y-38097265D01*
X53271101Y-38028932D01*
X53489608Y-37849608D01*
X53596795Y-37719000D01*
X54688017Y-37719000D01*
X54726525Y-37776632D01*
X54933368Y-37983475D01*
X54945001Y-37991248D01*
X54945000Y-39324068D01*
X54940476Y-39370000D01*
X54952985Y-39497000D01*
X54958529Y-39553291D01*
X55011993Y-39729539D01*
X55098814Y-39891971D01*
X55215656Y-40034344D01*
X55251341Y-40063630D01*
X63475038Y-48287327D01*
X63470498Y-48295820D01*
X63434188Y-48415518D01*
X63421928Y-48540000D01*
X63421928Y-50520000D01*
X63434188Y-50644482D01*
X63470498Y-50764180D01*
X63529463Y-50874494D01*
X63608815Y-50971185D01*
X63705506Y-51050537D01*
X63815820Y-51109502D01*
X63935518Y-51145812D01*
X64060000Y-51158072D01*
X68020000Y-51158072D01*
X68144482Y-51145812D01*
X68264180Y-51109502D01*
X68374494Y-51050537D01*
X68471185Y-50971185D01*
X68550537Y-50874494D01*
X68609502Y-50764180D01*
X68645812Y-50644482D01*
X68658072Y-50520000D01*
X68658072Y-48540000D01*
X68645812Y-48415518D01*
X68609502Y-48295820D01*
X68550537Y-48185506D01*
X68471185Y-48088815D01*
X68374494Y-48009463D01*
X68264180Y-47950498D01*
X68144482Y-47914188D01*
X68020000Y-47901928D01*
X65734217Y-47901928D01*
X56815000Y-38982711D01*
X56815000Y-37991247D01*
X56826632Y-37983475D01*
X57033475Y-37776632D01*
X57195990Y-37533411D01*
X57307932Y-37263158D01*
X57344920Y-37077209D01*
X63745611Y-43477900D01*
X63692325Y-43542830D01*
X63541432Y-43825131D01*
X63448513Y-44131444D01*
X63417138Y-44450000D01*
X63448513Y-44768556D01*
X63541432Y-45074869D01*
X63692325Y-45357170D01*
X63895392Y-45604608D01*
X64142830Y-45807675D01*
X64425131Y-45958568D01*
X64731444Y-46051487D01*
X64970176Y-46075000D01*
X67109824Y-46075000D01*
X67348556Y-46051487D01*
X67654869Y-45958568D01*
X67937170Y-45807675D01*
X68184608Y-45604608D01*
X68387675Y-45357170D01*
X68538568Y-45074869D01*
X68631487Y-44768556D01*
X68662862Y-44450000D01*
X68631487Y-44131444D01*
X68538568Y-43825131D01*
X68387675Y-43542830D01*
X68184608Y-43295392D01*
X67937170Y-43092325D01*
X67654869Y-42941432D01*
X67348556Y-42848513D01*
X67109824Y-42825000D01*
X65737289Y-42825000D01*
X63234579Y-40322290D01*
X63343243Y-40355253D01*
X63396707Y-40371471D01*
X63415110Y-40373283D01*
X63534068Y-40385000D01*
X63534074Y-40385000D01*
X63579999Y-40389523D01*
X63625924Y-40385000D01*
X63715164Y-40385000D01*
X63895392Y-40604608D01*
X64142830Y-40807675D01*
X64425131Y-40958568D01*
X64731444Y-41051487D01*
X64970176Y-41075000D01*
X67109824Y-41075000D01*
X67348556Y-41051487D01*
X67654869Y-40958568D01*
X67937170Y-40807675D01*
X68184608Y-40604608D01*
X68387675Y-40357170D01*
X68538568Y-40074869D01*
X68631487Y-39768556D01*
X68662862Y-39450000D01*
X68631487Y-39131444D01*
X68538568Y-38825131D01*
X68387675Y-38542830D01*
X68184608Y-38295392D01*
X67937170Y-38092325D01*
X67654869Y-37941432D01*
X67348556Y-37848513D01*
X67109824Y-37825000D01*
X64970176Y-37825000D01*
X64731444Y-37848513D01*
X64425131Y-37941432D01*
X64142830Y-38092325D01*
X63895392Y-38295392D01*
X63828811Y-38376521D01*
X58074579Y-32622290D01*
X58183243Y-32655253D01*
X58236707Y-32671471D01*
X58255110Y-32673283D01*
X58374068Y-32685000D01*
X58374074Y-32685000D01*
X58419999Y-32689523D01*
X58465924Y-32685000D01*
X62952711Y-32685000D01*
X63475038Y-33207327D01*
X63470498Y-33215820D01*
X63434188Y-33335518D01*
X63421928Y-33460000D01*
X63421928Y-35440000D01*
X63434188Y-35564482D01*
X63470498Y-35684180D01*
X63529463Y-35794494D01*
X63608815Y-35891185D01*
X63705506Y-35970537D01*
X63815820Y-36029502D01*
X63935518Y-36065812D01*
X64060000Y-36078072D01*
X68020000Y-36078072D01*
X68144482Y-36065812D01*
X68264180Y-36029502D01*
X68374494Y-35970537D01*
X68471185Y-35891185D01*
X68550537Y-35794494D01*
X68609502Y-35684180D01*
X68645812Y-35564482D01*
X68658072Y-35440000D01*
X68658072Y-33460000D01*
X68645812Y-33335518D01*
X68609502Y-33215820D01*
X68550537Y-33105506D01*
X68471185Y-33008815D01*
X68374494Y-32929463D01*
X68264180Y-32870498D01*
X68144482Y-32834188D01*
X68020000Y-32821928D01*
X65734217Y-32821928D01*
X64033630Y-31121341D01*
X64004344Y-31085656D01*
X63861972Y-30968814D01*
X63699540Y-30881993D01*
X63523292Y-30828529D01*
X63385932Y-30815000D01*
X63340000Y-30810476D01*
X63294068Y-30815000D01*
X58807290Y-30815000D01*
X57362271Y-29369981D01*
X57365000Y-29356260D01*
X57365000Y-29063740D01*
X57307932Y-28776842D01*
X57195990Y-28506589D01*
X57033475Y-28263368D01*
X56826632Y-28056525D01*
X56652240Y-27940000D01*
X56826632Y-27823475D01*
X57033475Y-27616632D01*
X57041247Y-27605000D01*
X63272711Y-27605000D01*
X63745611Y-28077901D01*
X63692325Y-28142830D01*
X63541432Y-28425131D01*
X63448513Y-28731444D01*
X63417138Y-29050000D01*
X63448513Y-29368556D01*
X63541432Y-29674869D01*
X63692325Y-29957170D01*
X63895392Y-30204608D01*
X64142830Y-30407675D01*
X64425131Y-30558568D01*
X64731444Y-30651487D01*
X64970176Y-30675000D01*
X67109824Y-30675000D01*
X67348556Y-30651487D01*
X67654869Y-30558568D01*
X67937170Y-30407675D01*
X68184608Y-30204608D01*
X68387675Y-29957170D01*
X68538568Y-29674869D01*
X68631487Y-29368556D01*
X68662862Y-29050000D01*
X68631487Y-28731444D01*
X68538568Y-28425131D01*
X68387675Y-28142830D01*
X68184608Y-27895392D01*
X67937170Y-27692325D01*
X67654869Y-27541432D01*
X67348556Y-27448513D01*
X67109824Y-27425000D01*
X65737290Y-27425000D01*
X64353630Y-26041341D01*
X64324344Y-26005656D01*
X64181972Y-25888814D01*
X64019540Y-25801993D01*
X63843292Y-25748529D01*
X63705932Y-25735000D01*
X63660000Y-25730476D01*
X63614068Y-25735000D01*
X57041247Y-25735000D01*
X57033475Y-25723368D01*
X56826632Y-25516525D01*
X56652240Y-25400000D01*
X56826632Y-25283475D01*
X57033475Y-25076632D01*
X57041247Y-25065000D01*
X63780819Y-25065000D01*
X63895392Y-25204608D01*
X64142830Y-25407675D01*
X64425131Y-25558568D01*
X64731444Y-25651487D01*
X64970176Y-25675000D01*
X67109824Y-25675000D01*
X67348556Y-25651487D01*
X67654869Y-25558568D01*
X67937170Y-25407675D01*
X68184608Y-25204608D01*
X68387675Y-24957170D01*
X68538568Y-24674869D01*
X68631487Y-24368556D01*
X68662862Y-24050000D01*
X68631487Y-23731444D01*
X68538568Y-23425131D01*
X68387675Y-23142830D01*
X68184608Y-22895392D01*
X67937170Y-22692325D01*
X67654869Y-22541432D01*
X67348556Y-22448513D01*
X67109824Y-22425000D01*
X64970176Y-22425000D01*
X64731444Y-22448513D01*
X64425131Y-22541432D01*
X64142830Y-22692325D01*
X63895392Y-22895392D01*
X63692325Y-23142830D01*
X63664440Y-23195000D01*
X57041247Y-23195000D01*
X57033475Y-23183368D01*
X56901620Y-23051513D01*
X56974180Y-23029502D01*
X57084494Y-22970537D01*
X57181185Y-22891185D01*
X57260537Y-22794494D01*
X57319502Y-22684180D01*
X57355812Y-22564482D01*
X57359701Y-22525000D01*
X63454068Y-22525000D01*
X63500000Y-22529524D01*
X63545932Y-22525000D01*
X63683292Y-22511471D01*
X63859540Y-22458007D01*
X64021972Y-22371186D01*
X64164344Y-22254344D01*
X64193630Y-22218659D01*
X65734218Y-20678072D01*
X68020000Y-20678072D01*
X68144482Y-20665812D01*
X68264180Y-20629502D01*
X68374494Y-20570537D01*
X68471185Y-20491185D01*
X68550537Y-20394494D01*
X68609502Y-20284180D01*
X68645812Y-20164482D01*
X68658072Y-20040000D01*
X68658072Y-18060000D01*
X68645812Y-17935518D01*
X68609502Y-17815820D01*
X68550537Y-17705506D01*
X68471185Y-17608815D01*
X68374494Y-17529463D01*
X68264180Y-17470498D01*
X68144482Y-17434188D01*
X68020000Y-17421928D01*
X64060000Y-17421928D01*
X63935518Y-17434188D01*
X63815820Y-17470498D01*
X63705506Y-17529463D01*
X63608815Y-17608815D01*
X63529463Y-17705506D01*
X63470498Y-17815820D01*
X63434188Y-17935518D01*
X63421928Y-18060000D01*
X63421928Y-20040000D01*
X63434188Y-20164482D01*
X63470498Y-20284180D01*
X63475038Y-20292673D01*
X63112711Y-20655000D01*
X57359701Y-20655000D01*
X57355812Y-20615518D01*
X57319502Y-20495820D01*
X57260537Y-20385506D01*
X57181185Y-20288815D01*
X57084494Y-20209463D01*
X56974180Y-20150498D01*
X56854482Y-20114188D01*
X56730000Y-20101928D01*
X55030000Y-20101928D01*
X54905518Y-20114188D01*
X54785820Y-20150498D01*
X54675506Y-20209463D01*
X54578815Y-20288815D01*
X54499463Y-20385506D01*
X54440498Y-20495820D01*
X54404188Y-20615518D01*
X54395769Y-20701000D01*
X53596795Y-20701000D01*
X53489608Y-20570392D01*
X53271101Y-20391068D01*
X53021808Y-20257818D01*
X52751309Y-20175764D01*
X52540492Y-20155000D01*
X51599508Y-20155000D01*
X51388691Y-20175764D01*
X51118192Y-20257818D01*
X50868899Y-20391068D01*
X50650392Y-20570392D01*
X50471068Y-20788899D01*
X50337818Y-21038192D01*
X50255764Y-21308691D01*
X50228057Y-21590000D01*
X46288072Y-21590000D01*
X46288072Y-20790000D01*
X46275812Y-20665518D01*
X46239502Y-20545820D01*
X46180537Y-20435506D01*
X46101185Y-20338815D01*
X46004494Y-20259463D01*
X45894180Y-20200498D01*
X45774482Y-20164188D01*
X45650000Y-20151928D01*
X43250000Y-20151928D01*
X43125518Y-20164188D01*
X43005820Y-20200498D01*
X42895506Y-20259463D01*
X42798815Y-20338815D01*
X42719463Y-20435506D01*
X42660498Y-20545820D01*
X42624188Y-20665518D01*
X42620693Y-20701000D01*
X42124231Y-20701000D01*
X42115812Y-20615518D01*
X42079502Y-20495820D01*
X42020537Y-20385506D01*
X41941185Y-20288815D01*
X41844494Y-20209463D01*
X41734180Y-20150498D01*
X41614482Y-20114188D01*
X41490000Y-20101928D01*
X39790000Y-20101928D01*
X39665518Y-20114188D01*
X39545820Y-20150498D01*
X39435506Y-20209463D01*
X39338815Y-20288815D01*
X39259463Y-20385506D01*
X39200498Y-20495820D01*
X39164188Y-20615518D01*
X39151928Y-20740000D01*
X36778043Y-20740000D01*
X36713475Y-20643368D01*
X36506632Y-20436525D01*
X36263411Y-20274010D01*
X35993158Y-20162068D01*
X35706260Y-20105000D01*
X35413740Y-20105000D01*
X35126842Y-20162068D01*
X34856589Y-20274010D01*
X34613368Y-20436525D01*
X34406525Y-20643368D01*
X34331935Y-20755000D01*
X30521007Y-20755000D01*
X30479999Y-20750961D01*
X30438991Y-20755000D01*
X30438981Y-20755000D01*
X30316311Y-20767082D01*
X30158913Y-20814828D01*
X30013854Y-20892364D01*
X29886709Y-20996709D01*
X29860559Y-21028573D01*
X28217940Y-22671193D01*
X28086260Y-22645000D01*
X27793740Y-22645000D01*
X27506842Y-22702068D01*
X27236589Y-22814010D01*
X26993368Y-22976525D01*
X26786525Y-23183368D01*
X26624010Y-23426589D01*
X26512068Y-23696842D01*
X26455000Y-23983740D01*
X26455000Y-24276260D01*
X26512068Y-24563158D01*
X26624010Y-24833411D01*
X26786525Y-25076632D01*
X26993368Y-25283475D01*
X27167760Y-25400000D01*
X26993368Y-25516525D01*
X26786525Y-25723368D01*
X26624010Y-25966589D01*
X26512068Y-26236842D01*
X26455000Y-26523740D01*
X26455000Y-26816260D01*
X26512068Y-27103158D01*
X26624010Y-27373411D01*
X26786525Y-27616632D01*
X26993368Y-27823475D01*
X27167760Y-27940000D01*
X26993368Y-28056525D01*
X26786525Y-28263368D01*
X26624010Y-28506589D01*
X26512068Y-28776842D01*
X26455000Y-29063740D01*
X26455000Y-29356260D01*
X26512068Y-29643158D01*
X26624010Y-29913411D01*
X26786525Y-30156632D01*
X26993368Y-30363475D01*
X27175534Y-30485195D01*
X27058645Y-30554822D01*
X26842412Y-30749731D01*
X26668359Y-30983080D01*
X26543175Y-31245901D01*
X26498524Y-31393110D01*
X26619845Y-31623000D01*
X27813000Y-31623000D01*
X27813000Y-31603000D01*
X28067000Y-31603000D01*
X28067000Y-31623000D01*
X28087000Y-31623000D01*
X28087000Y-31877000D01*
X28067000Y-31877000D01*
X28067000Y-31897000D01*
X27813000Y-31897000D01*
X27813000Y-31877000D01*
X26619845Y-31877000D01*
X26498524Y-32106890D01*
X26522216Y-32185000D01*
X25745868Y-32185000D01*
X25588807Y-32027939D01*
X25615000Y-31896260D01*
X25615000Y-31603740D01*
X25557932Y-31316842D01*
X25445990Y-31046589D01*
X25283475Y-30803368D01*
X25076632Y-30596525D01*
X24894466Y-30474805D01*
X25011355Y-30405178D01*
X25227588Y-30210269D01*
X25401641Y-29976920D01*
X25526825Y-29714099D01*
X25571476Y-29566890D01*
X25450155Y-29337000D01*
X24257000Y-29337000D01*
X24257000Y-29357000D01*
X24003000Y-29357000D01*
X24003000Y-29337000D01*
X22809845Y-29337000D01*
X22688524Y-29566890D01*
X22733175Y-29714099D01*
X22858359Y-29976920D01*
X23032412Y-30210269D01*
X23248645Y-30405178D01*
X23365534Y-30474805D01*
X23183368Y-30596525D01*
X22976525Y-30803368D01*
X22814010Y-31046589D01*
X22702068Y-31316842D01*
X22645000Y-31603740D01*
X22645000Y-31896260D01*
X22702068Y-32183158D01*
X22814010Y-32453411D01*
X22976525Y-32696632D01*
X23183368Y-32903475D01*
X23357760Y-33020000D01*
X23183368Y-33136525D01*
X22976525Y-33343368D01*
X22814010Y-33586589D01*
X22702068Y-33856842D01*
X22645000Y-34143740D01*
X22645000Y-34436260D01*
X22702068Y-34723158D01*
X22814010Y-34993411D01*
X22976525Y-35236632D01*
X23108380Y-35368487D01*
X23035820Y-35390498D01*
X22925506Y-35449463D01*
X22828815Y-35528815D01*
X22749463Y-35625506D01*
X22690498Y-35735820D01*
X22654188Y-35855518D01*
X22641928Y-35980000D01*
X22641928Y-37680000D01*
X22654188Y-37804482D01*
X22690498Y-37924180D01*
X22749463Y-38034494D01*
X22828815Y-38131185D01*
X22925506Y-38210537D01*
X23035820Y-38269502D01*
X23155518Y-38305812D01*
X23280000Y-38318072D01*
X24980000Y-38318072D01*
X25104482Y-38305812D01*
X25224180Y-38269502D01*
X25334494Y-38210537D01*
X25431185Y-38131185D01*
X25510537Y-38034494D01*
X25569502Y-37924180D01*
X25605812Y-37804482D01*
X25614231Y-37719000D01*
X26748017Y-37719000D01*
X26786525Y-37776632D01*
X26993368Y-37983475D01*
X27175534Y-38105195D01*
X27058645Y-38174822D01*
X26842412Y-38369731D01*
X26668359Y-38603080D01*
X26543175Y-38865901D01*
X26498524Y-39013110D01*
X26619845Y-39243000D01*
X27813000Y-39243000D01*
X27813000Y-39223000D01*
X28067000Y-39223000D01*
X28067000Y-39243000D01*
X28087000Y-39243000D01*
X28087000Y-39497000D01*
X28067000Y-39497000D01*
X28067000Y-39517000D01*
X27813000Y-39517000D01*
X27813000Y-39497000D01*
X26619845Y-39497000D01*
X26498524Y-39726890D01*
X26543175Y-39874099D01*
X26668359Y-40136920D01*
X26842412Y-40370269D01*
X27058645Y-40565178D01*
X27175534Y-40634805D01*
X26993368Y-40756525D01*
X26786525Y-40963368D01*
X26624010Y-41206589D01*
X26512068Y-41476842D01*
X26455000Y-41763740D01*
X26455000Y-42056260D01*
X26512068Y-42343158D01*
X26624010Y-42613411D01*
X26786525Y-42856632D01*
X26993368Y-43063475D01*
X27167760Y-43180000D01*
X26993368Y-43296525D01*
X26786525Y-43503368D01*
X26624010Y-43746589D01*
X26512068Y-44016842D01*
X26455000Y-44303740D01*
X26455000Y-44596260D01*
X26512068Y-44883158D01*
X26624010Y-45153411D01*
X26786525Y-45396632D01*
X26993368Y-45603475D01*
X27167760Y-45720000D01*
X26993368Y-45836525D01*
X26786525Y-46043368D01*
X26624010Y-46286589D01*
X26512068Y-46556842D01*
X26455000Y-46843740D01*
X26455000Y-47136260D01*
X26512068Y-47423158D01*
X26624010Y-47693411D01*
X26786525Y-47936632D01*
X26993368Y-48143475D01*
X27175534Y-48265195D01*
X27058645Y-48334822D01*
X26842412Y-48529731D01*
X26668359Y-48763080D01*
X26543175Y-49025901D01*
X26498524Y-49173110D01*
X26619845Y-49403000D01*
X27813000Y-49403000D01*
X27813000Y-49383000D01*
X28067000Y-49383000D01*
X28067000Y-49403000D01*
X28087000Y-49403000D01*
X28087000Y-49657000D01*
X28067000Y-49657000D01*
X28067000Y-49677000D01*
X27813000Y-49677000D01*
X27813000Y-49657000D01*
X26619845Y-49657000D01*
X26498524Y-49886890D01*
X26543175Y-50034099D01*
X26668359Y-50296920D01*
X26842412Y-50530269D01*
X27058645Y-50725178D01*
X27175534Y-50794805D01*
X26993368Y-50916525D01*
X26786525Y-51123368D01*
X26624010Y-51366589D01*
X26512068Y-51636842D01*
X26455000Y-51923740D01*
X26455000Y-52216260D01*
X26512068Y-52503158D01*
X26624010Y-52773411D01*
X26786525Y-53016632D01*
X26993368Y-53223475D01*
X27051001Y-53261984D01*
X27051000Y-53418016D01*
X26993368Y-53456525D01*
X26786525Y-53663368D01*
X26624010Y-53906589D01*
X26512068Y-54176842D01*
X26455000Y-54463740D01*
X26455000Y-54756260D01*
X26512068Y-55043158D01*
X26624010Y-55313411D01*
X26786525Y-55556632D01*
X26993368Y-55763475D01*
X27051001Y-55801984D01*
X27051000Y-59768016D01*
X26993368Y-59806525D01*
X26786525Y-60013368D01*
X26624010Y-60256589D01*
X26512068Y-60526842D01*
X26455000Y-60813740D01*
X26455000Y-61106260D01*
X26512068Y-61393158D01*
X26585318Y-61570000D01*
X24162279Y-61570000D01*
X23765455Y-61531091D01*
X23414794Y-61425220D01*
X23091377Y-61253257D01*
X22807518Y-61021748D01*
X22574035Y-60739514D01*
X22399816Y-60417304D01*
X22291498Y-60067385D01*
X22250000Y-59672557D01*
X22250000Y-28853110D01*
X22688524Y-28853110D01*
X22809845Y-29083000D01*
X24003000Y-29083000D01*
X24003000Y-27889186D01*
X24257000Y-27889186D01*
X24257000Y-29083000D01*
X25450155Y-29083000D01*
X25571476Y-28853110D01*
X25526825Y-28705901D01*
X25401641Y-28443080D01*
X25227588Y-28209731D01*
X25011355Y-28014822D01*
X24761252Y-27865843D01*
X24486891Y-27768519D01*
X24257000Y-27889186D01*
X24003000Y-27889186D01*
X23773109Y-27768519D01*
X23498748Y-27865843D01*
X23248645Y-28014822D01*
X23032412Y-28209731D01*
X22858359Y-28443080D01*
X22733175Y-28705901D01*
X22688524Y-28853110D01*
X22250000Y-28853110D01*
X22250000Y-20352279D01*
X22313096Y-19708778D01*
X22490606Y-19120836D01*
X22778937Y-18578564D01*
X23167094Y-18102636D01*
X23640314Y-17711155D01*
X24180552Y-17419049D01*
X24767244Y-17237437D01*
X25408879Y-17170000D01*
X71730001Y-17170000D01*
X71730000Y-61570000D01*
G37*
X71730000Y-61570000D02*
X43344682Y-61570000D01*
X43417932Y-61393158D01*
X43475000Y-61106260D01*
X43475000Y-60813740D01*
X43417932Y-60526842D01*
X43305990Y-60256589D01*
X43143475Y-60013368D01*
X42936632Y-59806525D01*
X42879000Y-59768017D01*
X42879000Y-54427387D01*
X42897169Y-54417675D01*
X43144608Y-54214608D01*
X43347675Y-53967170D01*
X43498568Y-53684869D01*
X43591487Y-53378556D01*
X43615000Y-53139824D01*
X43615000Y-52197000D01*
X45365000Y-52197000D01*
X45365000Y-53187000D01*
X45421000Y-53501582D01*
X45537296Y-53799194D01*
X45709419Y-54068399D01*
X45930754Y-54298852D01*
X46192795Y-54481696D01*
X46485472Y-54609905D01*
X46611135Y-54640218D01*
X46863000Y-54520740D01*
X46863000Y-52197000D01*
X47117000Y-52197000D01*
X47117000Y-54520740D01*
X47368865Y-54640218D01*
X47494528Y-54609905D01*
X47787205Y-54481696D01*
X48049246Y-54298852D01*
X48270581Y-54068399D01*
X48442704Y-53799194D01*
X48559000Y-53501582D01*
X48615000Y-53187000D01*
X48615000Y-52197000D01*
X47117000Y-52197000D01*
X46863000Y-52197000D01*
X45365000Y-52197000D01*
X43615000Y-52197000D01*
X43615000Y-51000176D01*
X43610354Y-50953000D01*
X45365000Y-50953000D01*
X45365000Y-51943000D01*
X46863000Y-51943000D01*
X46863000Y-49619260D01*
X47117000Y-49619260D01*
X47117000Y-51943000D01*
X48615000Y-51943000D01*
X48615000Y-50953000D01*
X48559000Y-50638418D01*
X48442704Y-50340806D01*
X48282345Y-50090000D01*
X50361928Y-50090000D01*
X50361928Y-54050000D01*
X50374188Y-54174482D01*
X50410498Y-54294180D01*
X50469463Y-54404494D01*
X50548815Y-54501185D01*
X50645506Y-54580537D01*
X50755820Y-54639502D01*
X50875518Y-54675812D01*
X51000000Y-54688072D01*
X52980000Y-54688072D01*
X53104482Y-54675812D01*
X53224180Y-54639502D01*
X53232673Y-54634962D01*
X53756374Y-55158664D01*
X53785656Y-55194344D01*
X53928028Y-55311186D01*
X54090460Y-55398007D01*
X54213243Y-55435253D01*
X54266707Y-55451471D01*
X54449999Y-55469524D01*
X54495931Y-55465000D01*
X63715164Y-55465000D01*
X63895392Y-55684608D01*
X64142830Y-55887675D01*
X64425131Y-56038568D01*
X64731444Y-56131487D01*
X64970176Y-56155000D01*
X65105001Y-56155000D01*
X65105000Y-57905000D01*
X64970176Y-57905000D01*
X64731444Y-57928513D01*
X64425131Y-58021432D01*
X64142830Y-58172325D01*
X63895392Y-58375392D01*
X63692325Y-58622830D01*
X63541432Y-58905131D01*
X63448513Y-59211444D01*
X63417138Y-59530000D01*
X63448513Y-59848556D01*
X63541432Y-60154869D01*
X63692325Y-60437170D01*
X63895392Y-60684608D01*
X64142830Y-60887675D01*
X64425131Y-61038568D01*
X64731444Y-61131487D01*
X64970176Y-61155000D01*
X67109824Y-61155000D01*
X67348556Y-61131487D01*
X67654869Y-61038568D01*
X67937170Y-60887675D01*
X68184608Y-60684608D01*
X68387675Y-60437170D01*
X68538568Y-60154869D01*
X68631487Y-59848556D01*
X68662862Y-59530000D01*
X68631487Y-59211444D01*
X68538568Y-58905131D01*
X68387675Y-58622830D01*
X68184608Y-58375392D01*
X67937170Y-58172325D01*
X67654869Y-58021432D01*
X67348556Y-57928513D01*
X67109824Y-57905000D01*
X66975000Y-57905000D01*
X66975000Y-56155000D01*
X67109824Y-56155000D01*
X67348556Y-56131487D01*
X67654869Y-56038568D01*
X67937170Y-55887675D01*
X68184608Y-55684608D01*
X68387675Y-55437170D01*
X68538568Y-55154869D01*
X68631487Y-54848556D01*
X68662862Y-54530000D01*
X68631487Y-54211444D01*
X68538568Y-53905131D01*
X68387675Y-53622830D01*
X68184608Y-53375392D01*
X67937170Y-53172325D01*
X67654869Y-53021432D01*
X67348556Y-52928513D01*
X67109824Y-52905000D01*
X64970176Y-52905000D01*
X64731444Y-52928513D01*
X64425131Y-53021432D01*
X64142830Y-53172325D01*
X63895392Y-53375392D01*
X63715164Y-53595000D01*
X54837290Y-53595000D01*
X53618072Y-52375783D01*
X53618072Y-50090000D01*
X53605812Y-49965518D01*
X53569502Y-49845820D01*
X53510537Y-49735506D01*
X53431185Y-49638815D01*
X53334494Y-49559463D01*
X53224180Y-49500498D01*
X53104482Y-49464188D01*
X52980000Y-49451928D01*
X51000000Y-49451928D01*
X50875518Y-49464188D01*
X50755820Y-49500498D01*
X50645506Y-49559463D01*
X50548815Y-49638815D01*
X50469463Y-49735506D01*
X50410498Y-49845820D01*
X50374188Y-49965518D01*
X50361928Y-50090000D01*
X48282345Y-50090000D01*
X48270581Y-50071601D01*
X48049246Y-49841148D01*
X47787205Y-49658304D01*
X47494528Y-49530095D01*
X47368865Y-49499782D01*
X47117000Y-49619260D01*
X46863000Y-49619260D01*
X46611135Y-49499782D01*
X46485472Y-49530095D01*
X46192795Y-49658304D01*
X45930754Y-49841148D01*
X45709419Y-50071601D01*
X45537296Y-50340806D01*
X45421000Y-50638418D01*
X45365000Y-50953000D01*
X43610354Y-50953000D01*
X43591487Y-50761444D01*
X43498568Y-50455131D01*
X43347675Y-50172830D01*
X43144608Y-49925392D01*
X42897170Y-49722325D01*
X42614869Y-49571432D01*
X42308556Y-49478513D01*
X41990000Y-49447138D01*
X41671445Y-49478513D01*
X41365132Y-49571432D01*
X41082831Y-49722325D01*
X40835393Y-49925392D01*
X40632326Y-50172830D01*
X40481433Y-50455131D01*
X40388514Y-50761444D01*
X40365001Y-51000176D01*
X40365000Y-53139823D01*
X40388513Y-53378555D01*
X40481432Y-53684868D01*
X40632325Y-53967169D01*
X40835392Y-54214608D01*
X41082830Y-54417675D01*
X41101000Y-54427387D01*
X41101001Y-59768016D01*
X41043368Y-59806525D01*
X40836525Y-60013368D01*
X40674010Y-60256589D01*
X40562068Y-60526842D01*
X40505000Y-60813740D01*
X40505000Y-61106260D01*
X40562068Y-61393158D01*
X40635318Y-61570000D01*
X29294682Y-61570000D01*
X29367932Y-61393158D01*
X29425000Y-61106260D01*
X29425000Y-60813740D01*
X29367932Y-60526842D01*
X29255990Y-60256589D01*
X29093475Y-60013368D01*
X28886632Y-59806525D01*
X28829000Y-59768017D01*
X28829000Y-55801983D01*
X28886632Y-55763475D01*
X29018487Y-55631620D01*
X29040498Y-55704180D01*
X29099463Y-55814494D01*
X29178815Y-55911185D01*
X29275506Y-55990537D01*
X29385820Y-56049502D01*
X29505518Y-56085812D01*
X29630000Y-56098072D01*
X30787205Y-56098072D01*
X31561193Y-56872061D01*
X31535000Y-57003740D01*
X31535000Y-57296260D01*
X31592068Y-57583158D01*
X31704010Y-57853411D01*
X31866525Y-58096632D01*
X32073368Y-58303475D01*
X32316589Y-58465990D01*
X32586842Y-58577932D01*
X32873740Y-58635000D01*
X33166260Y-58635000D01*
X33453158Y-58577932D01*
X33723411Y-58465990D01*
X33966632Y-58303475D01*
X34098487Y-58171620D01*
X34120498Y-58244180D01*
X34179463Y-58354494D01*
X34258815Y-58451185D01*
X34355506Y-58530537D01*
X34465820Y-58589502D01*
X34585518Y-58625812D01*
X34710000Y-58638072D01*
X36410000Y-58638072D01*
X36534482Y-58625812D01*
X36654180Y-58589502D01*
X36764494Y-58530537D01*
X36861185Y-58451185D01*
X36940537Y-58354494D01*
X36999502Y-58244180D01*
X37035812Y-58124482D01*
X37048072Y-58000000D01*
X37048072Y-56300000D01*
X37035812Y-56175518D01*
X36999502Y-56055820D01*
X36940537Y-55945506D01*
X36861185Y-55848815D01*
X36764494Y-55769463D01*
X36654180Y-55710498D01*
X36581620Y-55688487D01*
X36713475Y-55556632D01*
X36875990Y-55313411D01*
X36987932Y-55043158D01*
X37045000Y-54756260D01*
X37045000Y-54463740D01*
X36987932Y-54176842D01*
X36875990Y-53906589D01*
X36713475Y-53663368D01*
X36506632Y-53456525D01*
X36332240Y-53340000D01*
X36506632Y-53223475D01*
X36713475Y-53016632D01*
X36875990Y-52773411D01*
X36987932Y-52503158D01*
X37045000Y-52216260D01*
X37045000Y-51923740D01*
X36987932Y-51636842D01*
X36875990Y-51366589D01*
X36713475Y-51123368D01*
X36506632Y-50916525D01*
X36332240Y-50800000D01*
X36506632Y-50683475D01*
X36713475Y-50476632D01*
X36875990Y-50233411D01*
X36987932Y-49963158D01*
X37045000Y-49676260D01*
X37045000Y-49383740D01*
X36987932Y-49096842D01*
X36875990Y-48826589D01*
X36713475Y-48583368D01*
X36506632Y-48376525D01*
X36332240Y-48260000D01*
X36506632Y-48143475D01*
X36713475Y-47936632D01*
X36875990Y-47693411D01*
X36987932Y-47423158D01*
X37045000Y-47136260D01*
X37045000Y-46843740D01*
X36987932Y-46556842D01*
X36875990Y-46286589D01*
X36713475Y-46043368D01*
X36506632Y-45836525D01*
X36332240Y-45720000D01*
X36506632Y-45603475D01*
X36713475Y-45396632D01*
X36875990Y-45153411D01*
X36987932Y-44883158D01*
X37045000Y-44596260D01*
X37045000Y-44303740D01*
X36987932Y-44016842D01*
X36875990Y-43746589D01*
X36713475Y-43503368D01*
X36506632Y-43296525D01*
X36332240Y-43180000D01*
X36506632Y-43063475D01*
X36713475Y-42856632D01*
X36875990Y-42613411D01*
X36987932Y-42343158D01*
X37045000Y-42056260D01*
X37045000Y-41763740D01*
X36987932Y-41476842D01*
X36875990Y-41206589D01*
X36713475Y-40963368D01*
X36506632Y-40756525D01*
X36332240Y-40640000D01*
X36506632Y-40523475D01*
X36713475Y-40316632D01*
X36875990Y-40073411D01*
X36987932Y-39803158D01*
X37004664Y-39719039D01*
X42658096Y-39719039D01*
X42675633Y-39801818D01*
X42786285Y-40061646D01*
X42945500Y-40294895D01*
X43147161Y-40492601D01*
X43383517Y-40647166D01*
X43645486Y-40752650D01*
X43923000Y-40805000D01*
X44323000Y-40805000D01*
X44323000Y-39497000D01*
X44577000Y-39497000D01*
X44577000Y-40805000D01*
X44977000Y-40805000D01*
X45254514Y-40752650D01*
X45516483Y-40647166D01*
X45752839Y-40492601D01*
X45954500Y-40294895D01*
X46113715Y-40061646D01*
X46224367Y-39801818D01*
X46241904Y-39719039D01*
X50278096Y-39719039D01*
X50295633Y-39801818D01*
X50406285Y-40061646D01*
X50565500Y-40294895D01*
X50767161Y-40492601D01*
X51003517Y-40647166D01*
X51265486Y-40752650D01*
X51543000Y-40805000D01*
X51943000Y-40805000D01*
X51943000Y-39497000D01*
X52197000Y-39497000D01*
X52197000Y-40805000D01*
X52597000Y-40805000D01*
X52874514Y-40752650D01*
X53136483Y-40647166D01*
X53372839Y-40492601D01*
X53574500Y-40294895D01*
X53733715Y-40061646D01*
X53844367Y-39801818D01*
X53861904Y-39719039D01*
X53739915Y-39497000D01*
X52197000Y-39497000D01*
X51943000Y-39497000D01*
X50400085Y-39497000D01*
X50278096Y-39719039D01*
X46241904Y-39719039D01*
X46119915Y-39497000D01*
X44577000Y-39497000D01*
X44323000Y-39497000D01*
X42780085Y-39497000D01*
X42658096Y-39719039D01*
X37004664Y-39719039D01*
X37045000Y-39516260D01*
X37045000Y-39223740D01*
X36987932Y-38936842D01*
X36875990Y-38666589D01*
X36713475Y-38423368D01*
X36506632Y-38216525D01*
X36332240Y-38100000D01*
X36506632Y-37983475D01*
X36713475Y-37776632D01*
X36875990Y-37533411D01*
X36987932Y-37263158D01*
X37045000Y-36976260D01*
X37045000Y-36683740D01*
X36987932Y-36396842D01*
X36875990Y-36126589D01*
X36713475Y-35883368D01*
X36506632Y-35676525D01*
X36332240Y-35560000D01*
X36506632Y-35443475D01*
X36713475Y-35236632D01*
X36875990Y-34993411D01*
X36987932Y-34723158D01*
X37045000Y-34436260D01*
X37045000Y-34143740D01*
X36987932Y-33856842D01*
X36875990Y-33586589D01*
X36713475Y-33343368D01*
X36506632Y-33136525D01*
X36332240Y-33020000D01*
X36506632Y-32903475D01*
X36713475Y-32696632D01*
X36875990Y-32453411D01*
X36987932Y-32183158D01*
X37045000Y-31896260D01*
X37045000Y-31603740D01*
X36987932Y-31316842D01*
X36875990Y-31046589D01*
X36713475Y-30803368D01*
X36506632Y-30596525D01*
X36332240Y-30480000D01*
X36506632Y-30363475D01*
X36713475Y-30156632D01*
X36875990Y-29913411D01*
X36987932Y-29643158D01*
X37045000Y-29356260D01*
X37045000Y-29063740D01*
X36987932Y-28776842D01*
X36875990Y-28506589D01*
X36713475Y-28263368D01*
X36506632Y-28056525D01*
X36332240Y-27940000D01*
X36506632Y-27823475D01*
X36713475Y-27616632D01*
X36875990Y-27373411D01*
X36987932Y-27103158D01*
X37045000Y-26816260D01*
X37045000Y-26523740D01*
X36987932Y-26236842D01*
X36875990Y-25966589D01*
X36713475Y-25723368D01*
X36506632Y-25516525D01*
X36332240Y-25400000D01*
X36506632Y-25283475D01*
X36713475Y-25076632D01*
X36875990Y-24833411D01*
X36987932Y-24563158D01*
X37045000Y-24276260D01*
X37045000Y-23983740D01*
X36987932Y-23696842D01*
X36875990Y-23426589D01*
X36713475Y-23183368D01*
X36506632Y-22976525D01*
X36332240Y-22860000D01*
X36506632Y-22743475D01*
X36713475Y-22536632D01*
X36875990Y-22293411D01*
X36987932Y-22023158D01*
X37045000Y-21736260D01*
X37045000Y-21443740D01*
X36987932Y-21156842D01*
X36875990Y-20886589D01*
X36778043Y-20740000D01*
X39151928Y-20740000D01*
X39151928Y-22440000D01*
X39164188Y-22564482D01*
X39200498Y-22684180D01*
X39259463Y-22794494D01*
X39338815Y-22891185D01*
X39435506Y-22970537D01*
X39545820Y-23029502D01*
X39618380Y-23051513D01*
X39486525Y-23183368D01*
X39324010Y-23426589D01*
X39212068Y-23696842D01*
X39155000Y-23983740D01*
X39155000Y-24276260D01*
X39212068Y-24563158D01*
X39324010Y-24833411D01*
X39486525Y-25076632D01*
X39693368Y-25283475D01*
X39867760Y-25400000D01*
X39693368Y-25516525D01*
X39486525Y-25723368D01*
X39324010Y-25966589D01*
X39212068Y-26236842D01*
X39155000Y-26523740D01*
X39155000Y-26816260D01*
X39212068Y-27103158D01*
X39324010Y-27373411D01*
X39486525Y-27616632D01*
X39693368Y-27823475D01*
X39867760Y-27940000D01*
X39693368Y-28056525D01*
X39486525Y-28263368D01*
X39324010Y-28506589D01*
X39212068Y-28776842D01*
X39155000Y-29063740D01*
X39155000Y-29356260D01*
X39212068Y-29643158D01*
X39324010Y-29913411D01*
X39486525Y-30156632D01*
X39693368Y-30363475D01*
X39867760Y-30480000D01*
X39693368Y-30596525D01*
X39486525Y-30803368D01*
X39324010Y-31046589D01*
X39212068Y-31316842D01*
X39155000Y-31603740D01*
X39155000Y-31896260D01*
X39212068Y-32183158D01*
X39324010Y-32453411D01*
X39486525Y-32696632D01*
X39693368Y-32903475D01*
X39867760Y-33020000D01*
X39693368Y-33136525D01*
X39486525Y-33343368D01*
X39324010Y-33586589D01*
X39212068Y-33856842D01*
X39155000Y-34143740D01*
X39155000Y-34436260D01*
X39212068Y-34723158D01*
X39324010Y-34993411D01*
X39486525Y-35236632D01*
X39693368Y-35443475D01*
X39867760Y-35560000D01*
X39693368Y-35676525D01*
X39486525Y-35883368D01*
X39324010Y-36126589D01*
X39212068Y-36396842D01*
X39155000Y-36683740D01*
X39155000Y-36976260D01*
X39212068Y-37263158D01*
X39324010Y-37533411D01*
X39486525Y-37776632D01*
X39693368Y-37983475D01*
X39936589Y-38145990D01*
X40206842Y-38257932D01*
X40493740Y-38315000D01*
X40786260Y-38315000D01*
X41073158Y-38257932D01*
X41343411Y-38145990D01*
X41586632Y-37983475D01*
X41793475Y-37776632D01*
X41831983Y-37719000D01*
X42923205Y-37719000D01*
X43030392Y-37849608D01*
X43248899Y-38028932D01*
X43376741Y-38097265D01*
X43147161Y-38247399D01*
X42945500Y-38445105D01*
X42786285Y-38678354D01*
X42675633Y-38938182D01*
X42658096Y-39020961D01*
X42780085Y-39243000D01*
X44323000Y-39243000D01*
X44323000Y-39223000D01*
X44577000Y-39223000D01*
X44577000Y-39243000D01*
X46119915Y-39243000D01*
X46241904Y-39020961D01*
X46224367Y-38938182D01*
X46113715Y-38678354D01*
X45954500Y-38445105D01*
X45752839Y-38247399D01*
X45523259Y-38097265D01*
X45651101Y-38028932D01*
X45869608Y-37849608D01*
X46048932Y-37631101D01*
X46182182Y-37381808D01*
X46264236Y-37111309D01*
X46291943Y-36830000D01*
X46264236Y-36548691D01*
X46182182Y-36278192D01*
X46048932Y-36028899D01*
X45869608Y-35810392D01*
X45651101Y-35631068D01*
X45518142Y-35560000D01*
X45651101Y-35488932D01*
X45869608Y-35309608D01*
X46048932Y-35091101D01*
X46182182Y-34841808D01*
X46264236Y-34571309D01*
X46291943Y-34290000D01*
X46264236Y-34008691D01*
X46182182Y-33738192D01*
X46048932Y-33488899D01*
X45869608Y-33270392D01*
X45651101Y-33091068D01*
X45518142Y-33020000D01*
X45651101Y-32948932D01*
X45869608Y-32769608D01*
X46048932Y-32551101D01*
X46182182Y-32301808D01*
X46264236Y-32031309D01*
X46291943Y-31750000D01*
X46264236Y-31468691D01*
X46182182Y-31198192D01*
X46048932Y-30948899D01*
X45869608Y-30730392D01*
X45651101Y-30551068D01*
X45518142Y-30480000D01*
X45651101Y-30408932D01*
X45869608Y-30229608D01*
X46048932Y-30011101D01*
X46182182Y-29761808D01*
X46264236Y-29491309D01*
X46291943Y-29210000D01*
X46264236Y-28928691D01*
X46182182Y-28658192D01*
X46048932Y-28408899D01*
X45869608Y-28190392D01*
X45651101Y-28011068D01*
X45518142Y-27940000D01*
X45651101Y-27868932D01*
X45869608Y-27689608D01*
X46048932Y-27471101D01*
X46182182Y-27221808D01*
X46264236Y-26951309D01*
X46291943Y-26670000D01*
X46264236Y-26388691D01*
X46182182Y-26118192D01*
X46048932Y-25868899D01*
X45869608Y-25650392D01*
X45651101Y-25471068D01*
X45518142Y-25400000D01*
X45651101Y-25328932D01*
X45869608Y-25149608D01*
X46048932Y-24931101D01*
X46182182Y-24681808D01*
X46264236Y-24411309D01*
X46291943Y-24130000D01*
X46264236Y-23848691D01*
X46182182Y-23578192D01*
X46048932Y-23328899D01*
X45869608Y-23110392D01*
X45756518Y-23017581D01*
X45774482Y-23015812D01*
X45894180Y-22979502D01*
X46004494Y-22920537D01*
X46101185Y-22841185D01*
X46180537Y-22744494D01*
X46239502Y-22634180D01*
X46275812Y-22514482D01*
X46288072Y-22390000D01*
X46288072Y-21590000D01*
X50228057Y-21590000D01*
X50255764Y-21871309D01*
X50337818Y-22141808D01*
X50471068Y-22391101D01*
X50650392Y-22609608D01*
X50868899Y-22788932D01*
X51001858Y-22860000D01*
X50868899Y-22931068D01*
X50650392Y-23110392D01*
X50471068Y-23328899D01*
X50337818Y-23578192D01*
X50255764Y-23848691D01*
X50228057Y-24130000D01*
X50255764Y-24411309D01*
X50337818Y-24681808D01*
X50471068Y-24931101D01*
X50650392Y-25149608D01*
X50868899Y-25328932D01*
X51001858Y-25400000D01*
X50868899Y-25471068D01*
X50650392Y-25650392D01*
X50471068Y-25868899D01*
X50337818Y-26118192D01*
X50255764Y-26388691D01*
X50228057Y-26670000D01*
X50255764Y-26951309D01*
X50337818Y-27221808D01*
X50471068Y-27471101D01*
X50650392Y-27689608D01*
X50868899Y-27868932D01*
X51001858Y-27940000D01*
X50868899Y-28011068D01*
X50650392Y-28190392D01*
X50471068Y-28408899D01*
X50337818Y-28658192D01*
X50255764Y-28928691D01*
X50228057Y-29210000D01*
X50255764Y-29491309D01*
X50337818Y-29761808D01*
X50471068Y-30011101D01*
X50650392Y-30229608D01*
X50868899Y-30408932D01*
X51001858Y-30480000D01*
X50868899Y-30551068D01*
X50650392Y-30730392D01*
X50471068Y-30948899D01*
X50337818Y-31198192D01*
X50255764Y-31468691D01*
X50228057Y-31750000D01*
X50255764Y-32031309D01*
X50337818Y-32301808D01*
X50471068Y-32551101D01*
X50650392Y-32769608D01*
X50868899Y-32948932D01*
X51001858Y-33020000D01*
X50868899Y-33091068D01*
X50650392Y-33270392D01*
X50471068Y-33488899D01*
X50337818Y-33738192D01*
X50255764Y-34008691D01*
X50228057Y-34290000D01*
X50255764Y-34571309D01*
X50337818Y-34841808D01*
X50471068Y-35091101D01*
X50650392Y-35309608D01*
X50868899Y-35488932D01*
X51001858Y-35560000D01*
X50868899Y-35631068D01*
X50650392Y-35810392D01*
X50471068Y-36028899D01*
X50337818Y-36278192D01*
X50255764Y-36548691D01*
X50228057Y-36830000D01*
X50255764Y-37111309D01*
X50337818Y-37381808D01*
X50471068Y-37631101D01*
X50650392Y-37849608D01*
X50868899Y-38028932D01*
X50996741Y-38097265D01*
X50767161Y-38247399D01*
X50565500Y-38445105D01*
X50406285Y-38678354D01*
X50295633Y-38938182D01*
X50278096Y-39020961D01*
X50400085Y-39243000D01*
X51943000Y-39243000D01*
X51943000Y-39223000D01*
X52197000Y-39223000D01*
X52197000Y-39243000D01*
X53739915Y-39243000D01*
X53861904Y-39020961D01*
X53844367Y-38938182D01*
X53733715Y-38678354D01*
X53574500Y-38445105D01*
X53372839Y-38247399D01*
X53143259Y-38097265D01*
X53271101Y-38028932D01*
X53489608Y-37849608D01*
X53596795Y-37719000D01*
X54688017Y-37719000D01*
X54726525Y-37776632D01*
X54933368Y-37983475D01*
X54945001Y-37991248D01*
X54945000Y-39324068D01*
X54940476Y-39370000D01*
X54952985Y-39497000D01*
X54958529Y-39553291D01*
X55011993Y-39729539D01*
X55098814Y-39891971D01*
X55215656Y-40034344D01*
X55251341Y-40063630D01*
X63475038Y-48287327D01*
X63470498Y-48295820D01*
X63434188Y-48415518D01*
X63421928Y-48540000D01*
X63421928Y-50520000D01*
X63434188Y-50644482D01*
X63470498Y-50764180D01*
X63529463Y-50874494D01*
X63608815Y-50971185D01*
X63705506Y-51050537D01*
X63815820Y-51109502D01*
X63935518Y-51145812D01*
X64060000Y-51158072D01*
X68020000Y-51158072D01*
X68144482Y-51145812D01*
X68264180Y-51109502D01*
X68374494Y-51050537D01*
X68471185Y-50971185D01*
X68550537Y-50874494D01*
X68609502Y-50764180D01*
X68645812Y-50644482D01*
X68658072Y-50520000D01*
X68658072Y-48540000D01*
X68645812Y-48415518D01*
X68609502Y-48295820D01*
X68550537Y-48185506D01*
X68471185Y-48088815D01*
X68374494Y-48009463D01*
X68264180Y-47950498D01*
X68144482Y-47914188D01*
X68020000Y-47901928D01*
X65734217Y-47901928D01*
X56815000Y-38982711D01*
X56815000Y-37991247D01*
X56826632Y-37983475D01*
X57033475Y-37776632D01*
X57195990Y-37533411D01*
X57307932Y-37263158D01*
X57344920Y-37077209D01*
X63745611Y-43477900D01*
X63692325Y-43542830D01*
X63541432Y-43825131D01*
X63448513Y-44131444D01*
X63417138Y-44450000D01*
X63448513Y-44768556D01*
X63541432Y-45074869D01*
X63692325Y-45357170D01*
X63895392Y-45604608D01*
X64142830Y-45807675D01*
X64425131Y-45958568D01*
X64731444Y-46051487D01*
X64970176Y-46075000D01*
X67109824Y-46075000D01*
X67348556Y-46051487D01*
X67654869Y-45958568D01*
X67937170Y-45807675D01*
X68184608Y-45604608D01*
X68387675Y-45357170D01*
X68538568Y-45074869D01*
X68631487Y-44768556D01*
X68662862Y-44450000D01*
X68631487Y-44131444D01*
X68538568Y-43825131D01*
X68387675Y-43542830D01*
X68184608Y-43295392D01*
X67937170Y-43092325D01*
X67654869Y-42941432D01*
X67348556Y-42848513D01*
X67109824Y-42825000D01*
X65737289Y-42825000D01*
X63234579Y-40322290D01*
X63343243Y-40355253D01*
X63396707Y-40371471D01*
X63415110Y-40373283D01*
X63534068Y-40385000D01*
X63534074Y-40385000D01*
X63579999Y-40389523D01*
X63625924Y-40385000D01*
X63715164Y-40385000D01*
X63895392Y-40604608D01*
X64142830Y-40807675D01*
X64425131Y-40958568D01*
X64731444Y-41051487D01*
X64970176Y-41075000D01*
X67109824Y-41075000D01*
X67348556Y-41051487D01*
X67654869Y-40958568D01*
X67937170Y-40807675D01*
X68184608Y-40604608D01*
X68387675Y-40357170D01*
X68538568Y-40074869D01*
X68631487Y-39768556D01*
X68662862Y-39450000D01*
X68631487Y-39131444D01*
X68538568Y-38825131D01*
X68387675Y-38542830D01*
X68184608Y-38295392D01*
X67937170Y-38092325D01*
X67654869Y-37941432D01*
X67348556Y-37848513D01*
X67109824Y-37825000D01*
X64970176Y-37825000D01*
X64731444Y-37848513D01*
X64425131Y-37941432D01*
X64142830Y-38092325D01*
X63895392Y-38295392D01*
X63828811Y-38376521D01*
X58074579Y-32622290D01*
X58183243Y-32655253D01*
X58236707Y-32671471D01*
X58255110Y-32673283D01*
X58374068Y-32685000D01*
X58374074Y-32685000D01*
X58419999Y-32689523D01*
X58465924Y-32685000D01*
X62952711Y-32685000D01*
X63475038Y-33207327D01*
X63470498Y-33215820D01*
X63434188Y-33335518D01*
X63421928Y-33460000D01*
X63421928Y-35440000D01*
X63434188Y-35564482D01*
X63470498Y-35684180D01*
X63529463Y-35794494D01*
X63608815Y-35891185D01*
X63705506Y-35970537D01*
X63815820Y-36029502D01*
X63935518Y-36065812D01*
X64060000Y-36078072D01*
X68020000Y-36078072D01*
X68144482Y-36065812D01*
X68264180Y-36029502D01*
X68374494Y-35970537D01*
X68471185Y-35891185D01*
X68550537Y-35794494D01*
X68609502Y-35684180D01*
X68645812Y-35564482D01*
X68658072Y-35440000D01*
X68658072Y-33460000D01*
X68645812Y-33335518D01*
X68609502Y-33215820D01*
X68550537Y-33105506D01*
X68471185Y-33008815D01*
X68374494Y-32929463D01*
X68264180Y-32870498D01*
X68144482Y-32834188D01*
X68020000Y-32821928D01*
X65734217Y-32821928D01*
X64033630Y-31121341D01*
X64004344Y-31085656D01*
X63861972Y-30968814D01*
X63699540Y-30881993D01*
X63523292Y-30828529D01*
X63385932Y-30815000D01*
X63340000Y-30810476D01*
X63294068Y-30815000D01*
X58807290Y-30815000D01*
X57362271Y-29369981D01*
X57365000Y-29356260D01*
X57365000Y-29063740D01*
X57307932Y-28776842D01*
X57195990Y-28506589D01*
X57033475Y-28263368D01*
X56826632Y-28056525D01*
X56652240Y-27940000D01*
X56826632Y-27823475D01*
X57033475Y-27616632D01*
X57041247Y-27605000D01*
X63272711Y-27605000D01*
X63745611Y-28077901D01*
X63692325Y-28142830D01*
X63541432Y-28425131D01*
X63448513Y-28731444D01*
X63417138Y-29050000D01*
X63448513Y-29368556D01*
X63541432Y-29674869D01*
X63692325Y-29957170D01*
X63895392Y-30204608D01*
X64142830Y-30407675D01*
X64425131Y-30558568D01*
X64731444Y-30651487D01*
X64970176Y-30675000D01*
X67109824Y-30675000D01*
X67348556Y-30651487D01*
X67654869Y-30558568D01*
X67937170Y-30407675D01*
X68184608Y-30204608D01*
X68387675Y-29957170D01*
X68538568Y-29674869D01*
X68631487Y-29368556D01*
X68662862Y-29050000D01*
X68631487Y-28731444D01*
X68538568Y-28425131D01*
X68387675Y-28142830D01*
X68184608Y-27895392D01*
X67937170Y-27692325D01*
X67654869Y-27541432D01*
X67348556Y-27448513D01*
X67109824Y-27425000D01*
X65737290Y-27425000D01*
X64353630Y-26041341D01*
X64324344Y-26005656D01*
X64181972Y-25888814D01*
X64019540Y-25801993D01*
X63843292Y-25748529D01*
X63705932Y-25735000D01*
X63660000Y-25730476D01*
X63614068Y-25735000D01*
X57041247Y-25735000D01*
X57033475Y-25723368D01*
X56826632Y-25516525D01*
X56652240Y-25400000D01*
X56826632Y-25283475D01*
X57033475Y-25076632D01*
X57041247Y-25065000D01*
X63780819Y-25065000D01*
X63895392Y-25204608D01*
X64142830Y-25407675D01*
X64425131Y-25558568D01*
X64731444Y-25651487D01*
X64970176Y-25675000D01*
X67109824Y-25675000D01*
X67348556Y-25651487D01*
X67654869Y-25558568D01*
X67937170Y-25407675D01*
X68184608Y-25204608D01*
X68387675Y-24957170D01*
X68538568Y-24674869D01*
X68631487Y-24368556D01*
X68662862Y-24050000D01*
X68631487Y-23731444D01*
X68538568Y-23425131D01*
X68387675Y-23142830D01*
X68184608Y-22895392D01*
X67937170Y-22692325D01*
X67654869Y-22541432D01*
X67348556Y-22448513D01*
X67109824Y-22425000D01*
X64970176Y-22425000D01*
X64731444Y-22448513D01*
X64425131Y-22541432D01*
X64142830Y-22692325D01*
X63895392Y-22895392D01*
X63692325Y-23142830D01*
X63664440Y-23195000D01*
X57041247Y-23195000D01*
X57033475Y-23183368D01*
X56901620Y-23051513D01*
X56974180Y-23029502D01*
X57084494Y-22970537D01*
X57181185Y-22891185D01*
X57260537Y-22794494D01*
X57319502Y-22684180D01*
X57355812Y-22564482D01*
X57359701Y-22525000D01*
X63454068Y-22525000D01*
X63500000Y-22529524D01*
X63545932Y-22525000D01*
X63683292Y-22511471D01*
X63859540Y-22458007D01*
X64021972Y-22371186D01*
X64164344Y-22254344D01*
X64193630Y-22218659D01*
X65734218Y-20678072D01*
X68020000Y-20678072D01*
X68144482Y-20665812D01*
X68264180Y-20629502D01*
X68374494Y-20570537D01*
X68471185Y-20491185D01*
X68550537Y-20394494D01*
X68609502Y-20284180D01*
X68645812Y-20164482D01*
X68658072Y-20040000D01*
X68658072Y-18060000D01*
X68645812Y-17935518D01*
X68609502Y-17815820D01*
X68550537Y-17705506D01*
X68471185Y-17608815D01*
X68374494Y-17529463D01*
X68264180Y-17470498D01*
X68144482Y-17434188D01*
X68020000Y-17421928D01*
X64060000Y-17421928D01*
X63935518Y-17434188D01*
X63815820Y-17470498D01*
X63705506Y-17529463D01*
X63608815Y-17608815D01*
X63529463Y-17705506D01*
X63470498Y-17815820D01*
X63434188Y-17935518D01*
X63421928Y-18060000D01*
X63421928Y-20040000D01*
X63434188Y-20164482D01*
X63470498Y-20284180D01*
X63475038Y-20292673D01*
X63112711Y-20655000D01*
X57359701Y-20655000D01*
X57355812Y-20615518D01*
X57319502Y-20495820D01*
X57260537Y-20385506D01*
X57181185Y-20288815D01*
X57084494Y-20209463D01*
X56974180Y-20150498D01*
X56854482Y-20114188D01*
X56730000Y-20101928D01*
X55030000Y-20101928D01*
X54905518Y-20114188D01*
X54785820Y-20150498D01*
X54675506Y-20209463D01*
X54578815Y-20288815D01*
X54499463Y-20385506D01*
X54440498Y-20495820D01*
X54404188Y-20615518D01*
X54395769Y-20701000D01*
X53596795Y-20701000D01*
X53489608Y-20570392D01*
X53271101Y-20391068D01*
X53021808Y-20257818D01*
X52751309Y-20175764D01*
X52540492Y-20155000D01*
X51599508Y-20155000D01*
X51388691Y-20175764D01*
X51118192Y-20257818D01*
X50868899Y-20391068D01*
X50650392Y-20570392D01*
X50471068Y-20788899D01*
X50337818Y-21038192D01*
X50255764Y-21308691D01*
X50228057Y-21590000D01*
X46288072Y-21590000D01*
X46288072Y-20790000D01*
X46275812Y-20665518D01*
X46239502Y-20545820D01*
X46180537Y-20435506D01*
X46101185Y-20338815D01*
X46004494Y-20259463D01*
X45894180Y-20200498D01*
X45774482Y-20164188D01*
X45650000Y-20151928D01*
X43250000Y-20151928D01*
X43125518Y-20164188D01*
X43005820Y-20200498D01*
X42895506Y-20259463D01*
X42798815Y-20338815D01*
X42719463Y-20435506D01*
X42660498Y-20545820D01*
X42624188Y-20665518D01*
X42620693Y-20701000D01*
X42124231Y-20701000D01*
X42115812Y-20615518D01*
X42079502Y-20495820D01*
X42020537Y-20385506D01*
X41941185Y-20288815D01*
X41844494Y-20209463D01*
X41734180Y-20150498D01*
X41614482Y-20114188D01*
X41490000Y-20101928D01*
X39790000Y-20101928D01*
X39665518Y-20114188D01*
X39545820Y-20150498D01*
X39435506Y-20209463D01*
X39338815Y-20288815D01*
X39259463Y-20385506D01*
X39200498Y-20495820D01*
X39164188Y-20615518D01*
X39151928Y-20740000D01*
X36778043Y-20740000D01*
X36713475Y-20643368D01*
X36506632Y-20436525D01*
X36263411Y-20274010D01*
X35993158Y-20162068D01*
X35706260Y-20105000D01*
X35413740Y-20105000D01*
X35126842Y-20162068D01*
X34856589Y-20274010D01*
X34613368Y-20436525D01*
X34406525Y-20643368D01*
X34331935Y-20755000D01*
X30521007Y-20755000D01*
X30479999Y-20750961D01*
X30438991Y-20755000D01*
X30438981Y-20755000D01*
X30316311Y-20767082D01*
X30158913Y-20814828D01*
X30013854Y-20892364D01*
X29886709Y-20996709D01*
X29860559Y-21028573D01*
X28217940Y-22671193D01*
X28086260Y-22645000D01*
X27793740Y-22645000D01*
X27506842Y-22702068D01*
X27236589Y-22814010D01*
X26993368Y-22976525D01*
X26786525Y-23183368D01*
X26624010Y-23426589D01*
X26512068Y-23696842D01*
X26455000Y-23983740D01*
X26455000Y-24276260D01*
X26512068Y-24563158D01*
X26624010Y-24833411D01*
X26786525Y-25076632D01*
X26993368Y-25283475D01*
X27167760Y-25400000D01*
X26993368Y-25516525D01*
X26786525Y-25723368D01*
X26624010Y-25966589D01*
X26512068Y-26236842D01*
X26455000Y-26523740D01*
X26455000Y-26816260D01*
X26512068Y-27103158D01*
X26624010Y-27373411D01*
X26786525Y-27616632D01*
X26993368Y-27823475D01*
X27167760Y-27940000D01*
X26993368Y-28056525D01*
X26786525Y-28263368D01*
X26624010Y-28506589D01*
X26512068Y-28776842D01*
X26455000Y-29063740D01*
X26455000Y-29356260D01*
X26512068Y-29643158D01*
X26624010Y-29913411D01*
X26786525Y-30156632D01*
X26993368Y-30363475D01*
X27175534Y-30485195D01*
X27058645Y-30554822D01*
X26842412Y-30749731D01*
X26668359Y-30983080D01*
X26543175Y-31245901D01*
X26498524Y-31393110D01*
X26619845Y-31623000D01*
X27813000Y-31623000D01*
X27813000Y-31603000D01*
X28067000Y-31603000D01*
X28067000Y-31623000D01*
X28087000Y-31623000D01*
X28087000Y-31877000D01*
X28067000Y-31877000D01*
X28067000Y-31897000D01*
X27813000Y-31897000D01*
X27813000Y-31877000D01*
X26619845Y-31877000D01*
X26498524Y-32106890D01*
X26522216Y-32185000D01*
X25745868Y-32185000D01*
X25588807Y-32027939D01*
X25615000Y-31896260D01*
X25615000Y-31603740D01*
X25557932Y-31316842D01*
X25445990Y-31046589D01*
X25283475Y-30803368D01*
X25076632Y-30596525D01*
X24894466Y-30474805D01*
X25011355Y-30405178D01*
X25227588Y-30210269D01*
X25401641Y-29976920D01*
X25526825Y-29714099D01*
X25571476Y-29566890D01*
X25450155Y-29337000D01*
X24257000Y-29337000D01*
X24257000Y-29357000D01*
X24003000Y-29357000D01*
X24003000Y-29337000D01*
X22809845Y-29337000D01*
X22688524Y-29566890D01*
X22733175Y-29714099D01*
X22858359Y-29976920D01*
X23032412Y-30210269D01*
X23248645Y-30405178D01*
X23365534Y-30474805D01*
X23183368Y-30596525D01*
X22976525Y-30803368D01*
X22814010Y-31046589D01*
X22702068Y-31316842D01*
X22645000Y-31603740D01*
X22645000Y-31896260D01*
X22702068Y-32183158D01*
X22814010Y-32453411D01*
X22976525Y-32696632D01*
X23183368Y-32903475D01*
X23357760Y-33020000D01*
X23183368Y-33136525D01*
X22976525Y-33343368D01*
X22814010Y-33586589D01*
X22702068Y-33856842D01*
X22645000Y-34143740D01*
X22645000Y-34436260D01*
X22702068Y-34723158D01*
X22814010Y-34993411D01*
X22976525Y-35236632D01*
X23108380Y-35368487D01*
X23035820Y-35390498D01*
X22925506Y-35449463D01*
X22828815Y-35528815D01*
X22749463Y-35625506D01*
X22690498Y-35735820D01*
X22654188Y-35855518D01*
X22641928Y-35980000D01*
X22641928Y-37680000D01*
X22654188Y-37804482D01*
X22690498Y-37924180D01*
X22749463Y-38034494D01*
X22828815Y-38131185D01*
X22925506Y-38210537D01*
X23035820Y-38269502D01*
X23155518Y-38305812D01*
X23280000Y-38318072D01*
X24980000Y-38318072D01*
X25104482Y-38305812D01*
X25224180Y-38269502D01*
X25334494Y-38210537D01*
X25431185Y-38131185D01*
X25510537Y-38034494D01*
X25569502Y-37924180D01*
X25605812Y-37804482D01*
X25614231Y-37719000D01*
X26748017Y-37719000D01*
X26786525Y-37776632D01*
X26993368Y-37983475D01*
X27175534Y-38105195D01*
X27058645Y-38174822D01*
X26842412Y-38369731D01*
X26668359Y-38603080D01*
X26543175Y-38865901D01*
X26498524Y-39013110D01*
X26619845Y-39243000D01*
X27813000Y-39243000D01*
X27813000Y-39223000D01*
X28067000Y-39223000D01*
X28067000Y-39243000D01*
X28087000Y-39243000D01*
X28087000Y-39497000D01*
X28067000Y-39497000D01*
X28067000Y-39517000D01*
X27813000Y-39517000D01*
X27813000Y-39497000D01*
X26619845Y-39497000D01*
X26498524Y-39726890D01*
X26543175Y-39874099D01*
X26668359Y-40136920D01*
X26842412Y-40370269D01*
X27058645Y-40565178D01*
X27175534Y-40634805D01*
X26993368Y-40756525D01*
X26786525Y-40963368D01*
X26624010Y-41206589D01*
X26512068Y-41476842D01*
X26455000Y-41763740D01*
X26455000Y-42056260D01*
X26512068Y-42343158D01*
X26624010Y-42613411D01*
X26786525Y-42856632D01*
X26993368Y-43063475D01*
X27167760Y-43180000D01*
X26993368Y-43296525D01*
X26786525Y-43503368D01*
X26624010Y-43746589D01*
X26512068Y-44016842D01*
X26455000Y-44303740D01*
X26455000Y-44596260D01*
X26512068Y-44883158D01*
X26624010Y-45153411D01*
X26786525Y-45396632D01*
X26993368Y-45603475D01*
X27167760Y-45720000D01*
X26993368Y-45836525D01*
X26786525Y-46043368D01*
X26624010Y-46286589D01*
X26512068Y-46556842D01*
X26455000Y-46843740D01*
X26455000Y-47136260D01*
X26512068Y-47423158D01*
X26624010Y-47693411D01*
X26786525Y-47936632D01*
X26993368Y-48143475D01*
X27175534Y-48265195D01*
X27058645Y-48334822D01*
X26842412Y-48529731D01*
X26668359Y-48763080D01*
X26543175Y-49025901D01*
X26498524Y-49173110D01*
X26619845Y-49403000D01*
X27813000Y-49403000D01*
X27813000Y-49383000D01*
X28067000Y-49383000D01*
X28067000Y-49403000D01*
X28087000Y-49403000D01*
X28087000Y-49657000D01*
X28067000Y-49657000D01*
X28067000Y-49677000D01*
X27813000Y-49677000D01*
X27813000Y-49657000D01*
X26619845Y-49657000D01*
X26498524Y-49886890D01*
X26543175Y-50034099D01*
X26668359Y-50296920D01*
X26842412Y-50530269D01*
X27058645Y-50725178D01*
X27175534Y-50794805D01*
X26993368Y-50916525D01*
X26786525Y-51123368D01*
X26624010Y-51366589D01*
X26512068Y-51636842D01*
X26455000Y-51923740D01*
X26455000Y-52216260D01*
X26512068Y-52503158D01*
X26624010Y-52773411D01*
X26786525Y-53016632D01*
X26993368Y-53223475D01*
X27051001Y-53261984D01*
X27051000Y-53418016D01*
X26993368Y-53456525D01*
X26786525Y-53663368D01*
X26624010Y-53906589D01*
X26512068Y-54176842D01*
X26455000Y-54463740D01*
X26455000Y-54756260D01*
X26512068Y-55043158D01*
X26624010Y-55313411D01*
X26786525Y-55556632D01*
X26993368Y-55763475D01*
X27051001Y-55801984D01*
X27051000Y-59768016D01*
X26993368Y-59806525D01*
X26786525Y-60013368D01*
X26624010Y-60256589D01*
X26512068Y-60526842D01*
X26455000Y-60813740D01*
X26455000Y-61106260D01*
X26512068Y-61393158D01*
X26585318Y-61570000D01*
X24162279Y-61570000D01*
X23765455Y-61531091D01*
X23414794Y-61425220D01*
X23091377Y-61253257D01*
X22807518Y-61021748D01*
X22574035Y-60739514D01*
X22399816Y-60417304D01*
X22291498Y-60067385D01*
X22250000Y-59672557D01*
X22250000Y-28853110D01*
X22688524Y-28853110D01*
X22809845Y-29083000D01*
X24003000Y-29083000D01*
X24003000Y-27889186D01*
X24257000Y-27889186D01*
X24257000Y-29083000D01*
X25450155Y-29083000D01*
X25571476Y-28853110D01*
X25526825Y-28705901D01*
X25401641Y-28443080D01*
X25227588Y-28209731D01*
X25011355Y-28014822D01*
X24761252Y-27865843D01*
X24486891Y-27768519D01*
X24257000Y-27889186D01*
X24003000Y-27889186D01*
X23773109Y-27768519D01*
X23498748Y-27865843D01*
X23248645Y-28014822D01*
X23032412Y-28209731D01*
X22858359Y-28443080D01*
X22733175Y-28705901D01*
X22688524Y-28853110D01*
X22250000Y-28853110D01*
X22250000Y-20352279D01*
X22313096Y-19708778D01*
X22490606Y-19120836D01*
X22778937Y-18578564D01*
X23167094Y-18102636D01*
X23640314Y-17711155D01*
X24180552Y-17419049D01*
X24767244Y-17237437D01*
X25408879Y-17170000D01*
X71730001Y-17170000D01*
X71730000Y-61570000D01*
G36*
X30607000Y-44323000D02*
G01*
X30627000Y-44323000D01*
X30627000Y-44577000D01*
X30607000Y-44577000D01*
X30607000Y-44597000D01*
X30353000Y-44597000D01*
X30353000Y-44577000D01*
X30333000Y-44577000D01*
X30333000Y-44323000D01*
X30353000Y-44323000D01*
X30353000Y-44303000D01*
X30607000Y-44303000D01*
X30607000Y-44323000D01*
G37*
X30607000Y-44323000D02*
X30627000Y-44323000D01*
X30627000Y-44577000D01*
X30607000Y-44577000D01*
X30607000Y-44597000D01*
X30353000Y-44597000D01*
X30353000Y-44577000D01*
X30333000Y-44577000D01*
X30333000Y-44323000D01*
X30353000Y-44323000D01*
X30353000Y-44303000D01*
X30607000Y-44303000D01*
X30607000Y-44323000D01*
G36*
X34406525Y-22536632D02*
G01*
X34613368Y-22743475D01*
X34787760Y-22860000D01*
X34613368Y-22976525D01*
X34406525Y-23183368D01*
X34244010Y-23426589D01*
X34132068Y-23696842D01*
X34075000Y-23983740D01*
X34075000Y-24276260D01*
X34101193Y-24407940D01*
X33924134Y-24584999D01*
X31891718Y-24584999D01*
X31921476Y-24486890D01*
X31800155Y-24257000D01*
X30607000Y-24257000D01*
X30607000Y-24277000D01*
X30353000Y-24277000D01*
X30353000Y-24257000D01*
X30333000Y-24257000D01*
X30333000Y-24003000D01*
X30353000Y-24003000D01*
X30353000Y-23983000D01*
X30607000Y-23983000D01*
X30607000Y-24003000D01*
X31800155Y-24003000D01*
X31921476Y-23773110D01*
X31876825Y-23625901D01*
X31751641Y-23363080D01*
X31577588Y-23129731D01*
X31361355Y-22934822D01*
X31111252Y-22785843D01*
X30836891Y-22688519D01*
X30607002Y-22809185D01*
X30607002Y-22645000D01*
X30605868Y-22645000D01*
X30825868Y-22425000D01*
X34331935Y-22425000D01*
X34406525Y-22536632D01*
G37*
X34406525Y-22536632D02*
X34613368Y-22743475D01*
X34787760Y-22860000D01*
X34613368Y-22976525D01*
X34406525Y-23183368D01*
X34244010Y-23426589D01*
X34132068Y-23696842D01*
X34075000Y-23983740D01*
X34075000Y-24276260D01*
X34101193Y-24407940D01*
X33924134Y-24584999D01*
X31891718Y-24584999D01*
X31921476Y-24486890D01*
X31800155Y-24257000D01*
X30607000Y-24257000D01*
X30607000Y-24277000D01*
X30353000Y-24277000D01*
X30353000Y-24257000D01*
X30333000Y-24257000D01*
X30333000Y-24003000D01*
X30353000Y-24003000D01*
X30353000Y-23983000D01*
X30607000Y-23983000D01*
X30607000Y-24003000D01*
X31800155Y-24003000D01*
X31921476Y-23773110D01*
X31876825Y-23625901D01*
X31751641Y-23363080D01*
X31577588Y-23129731D01*
X31361355Y-22934822D01*
X31111252Y-22785843D01*
X30836891Y-22688519D01*
X30607002Y-22809185D01*
X30607002Y-22645000D01*
X30605868Y-22645000D01*
X30825868Y-22425000D01*
X34331935Y-22425000D01*
X34406525Y-22536632D01*
%TD*%
M02*
