%TF.GenerationSoftware,KiCad,Pcbnew,5.1.6*%
%TF.CreationDate,2020-06-10T16:54:39+07:00*%
%TF.ProjectId,pi_hat_driver_ULN2003,70695f68-6174-45f6-9472-697665725f55,rev?*%
%TF.SameCoordinates,Original*%
%TF.FileFunction,Legend,Top*%
%TF.FilePolarity,Positive*%
%FSLAX46Y46*%
G04 Gerber Fmt 4.6, Leading zero omitted, Abs format (unit mm)*
G04 Created by KiCad (PCBNEW 5.1.6) date 2020-06-10 16:54:39*
%MOMM*%
%LPD*%
G01*
G04 APERTURE LIST*
%ADD10C,0.120000*%
%ADD11C,0.150000*%
G04 APERTURE END LIST*
D10*
%TO.C,J1*%
X54640000Y-58370000D02*
X54640000Y-45770000D01*
X54640000Y-45770000D02*
X39240000Y-45770000D01*
X39240000Y-45770000D02*
X39240000Y-46720000D01*
X39240000Y-46720000D02*
X38740000Y-46420000D01*
X38740000Y-46420000D02*
X38740000Y-48420000D01*
X38740000Y-48420000D02*
X39240000Y-48170000D01*
X39240000Y-48170000D02*
X39240000Y-53570000D01*
X39240000Y-53570000D02*
X38740000Y-53320000D01*
X38740000Y-53320000D02*
X38740000Y-58370000D01*
X38740000Y-58370000D02*
X54640000Y-58370000D01*
%TO.C,J2*%
X31810000Y-22800000D02*
X26610000Y-22800000D01*
X31810000Y-53340000D02*
X31810000Y-22800000D01*
X26610000Y-55940000D02*
X26610000Y-22800000D01*
X31810000Y-53340000D02*
X29210000Y-53340000D01*
X29210000Y-53340000D02*
X29210000Y-55940000D01*
X29210000Y-55940000D02*
X26610000Y-55940000D01*
X31810000Y-54610000D02*
X31810000Y-55940000D01*
X31810000Y-55940000D02*
X30480000Y-55940000D01*
%TO.C,J3*%
X25460000Y-27880000D02*
X22800000Y-27880000D01*
X25460000Y-35560000D02*
X25460000Y-27880000D01*
X22800000Y-35560000D02*
X22800000Y-27880000D01*
X25460000Y-35560000D02*
X22800000Y-35560000D01*
X25460000Y-36830000D02*
X25460000Y-38160000D01*
X25460000Y-38160000D02*
X24130000Y-38160000D01*
%TO.C,J4*%
X39310000Y-38160000D02*
X41970000Y-38160000D01*
X39310000Y-22860000D02*
X39310000Y-38160000D01*
X41970000Y-22860000D02*
X41970000Y-38160000D01*
X39310000Y-22860000D02*
X41970000Y-22860000D01*
X39310000Y-21590000D02*
X39310000Y-20260000D01*
X39310000Y-20260000D02*
X40640000Y-20260000D01*
%TO.C,J5*%
X54550000Y-20260000D02*
X55880000Y-20260000D01*
X54550000Y-21590000D02*
X54550000Y-20260000D01*
X54550000Y-22860000D02*
X57210000Y-22860000D01*
X57210000Y-22860000D02*
X57210000Y-38160000D01*
X54550000Y-22860000D02*
X54550000Y-38160000D01*
X54550000Y-38160000D02*
X57210000Y-38160000D01*
%TO.C,U1*%
X47260000Y-20260000D02*
X46010000Y-20260000D01*
X46010000Y-20260000D02*
X46010000Y-40700000D01*
X46010000Y-40700000D02*
X50510000Y-40700000D01*
X50510000Y-40700000D02*
X50510000Y-20260000D01*
X50510000Y-20260000D02*
X49260000Y-20260000D01*
X43010000Y-20200000D02*
X43010000Y-40760000D01*
X43010000Y-40760000D02*
X53510000Y-40760000D01*
X53510000Y-40760000D02*
X53510000Y-20200000D01*
X53510000Y-20200000D02*
X43010000Y-20200000D01*
X49260000Y-20260000D02*
G75*
G02*
X47260000Y-20260000I-1000000J0D01*
G01*
%TO.C,J6*%
X36890000Y-20260000D02*
X34230000Y-20260000D01*
X36890000Y-55880000D02*
X36890000Y-20260000D01*
X34230000Y-55880000D02*
X34230000Y-20260000D01*
X36890000Y-55880000D02*
X34230000Y-55880000D01*
X36890000Y-57150000D02*
X36890000Y-58480000D01*
X36890000Y-58480000D02*
X35560000Y-58480000D01*
%TO.C,J7*%
X72340000Y-32300000D02*
X72340000Y-16400000D01*
X67290000Y-32300000D02*
X72340000Y-32300000D01*
X67540000Y-31800000D02*
X67290000Y-32300000D01*
X62140000Y-31800000D02*
X67540000Y-31800000D01*
X62390000Y-32300000D02*
X62140000Y-31800000D01*
X60390000Y-32300000D02*
X62390000Y-32300000D01*
X60690000Y-31800000D02*
X60390000Y-32300000D01*
X59740000Y-31800000D02*
X60690000Y-31800000D01*
X59740000Y-16400000D02*
X59740000Y-31800000D01*
X72340000Y-16400000D02*
X59740000Y-16400000D01*
%TO.C,J8*%
X72340000Y-31800000D02*
X59740000Y-31800000D01*
X59740000Y-31800000D02*
X59740000Y-47200000D01*
X59740000Y-47200000D02*
X60690000Y-47200000D01*
X60690000Y-47200000D02*
X60390000Y-47700000D01*
X60390000Y-47700000D02*
X62390000Y-47700000D01*
X62390000Y-47700000D02*
X62140000Y-47200000D01*
X62140000Y-47200000D02*
X67540000Y-47200000D01*
X67540000Y-47200000D02*
X67290000Y-47700000D01*
X67290000Y-47700000D02*
X72340000Y-47700000D01*
X72340000Y-47700000D02*
X72340000Y-31800000D01*
%TO.C,J9*%
X72340000Y-62780000D02*
X72340000Y-46880000D01*
X67290000Y-62780000D02*
X72340000Y-62780000D01*
X67540000Y-62280000D02*
X67290000Y-62780000D01*
X62140000Y-62280000D02*
X67540000Y-62280000D01*
X62390000Y-62780000D02*
X62140000Y-62280000D01*
X60390000Y-62780000D02*
X62390000Y-62780000D01*
X60690000Y-62280000D02*
X60390000Y-62780000D01*
X59740000Y-62280000D02*
X60690000Y-62280000D01*
X59740000Y-46880000D02*
X59740000Y-62280000D01*
X72340000Y-46880000D02*
X59740000Y-46880000D01*
%TO.C,J1*%
D11*
X46656666Y-58622380D02*
X46656666Y-59336666D01*
X46609047Y-59479523D01*
X46513809Y-59574761D01*
X46370952Y-59622380D01*
X46275714Y-59622380D01*
X47656666Y-59622380D02*
X47085238Y-59622380D01*
X47370952Y-59622380D02*
X47370952Y-58622380D01*
X47275714Y-58765238D01*
X47180476Y-58860476D01*
X47085238Y-58908095D01*
%TO.C,J2*%
X28876666Y-56392380D02*
X28876666Y-57106666D01*
X28829047Y-57249523D01*
X28733809Y-57344761D01*
X28590952Y-57392380D01*
X28495714Y-57392380D01*
X29305238Y-56487619D02*
X29352857Y-56440000D01*
X29448095Y-56392380D01*
X29686190Y-56392380D01*
X29781428Y-56440000D01*
X29829047Y-56487619D01*
X29876666Y-56582857D01*
X29876666Y-56678095D01*
X29829047Y-56820952D01*
X29257619Y-57392380D01*
X29876666Y-57392380D01*
%TO.C,J3*%
X23796666Y-38612380D02*
X23796666Y-39326666D01*
X23749047Y-39469523D01*
X23653809Y-39564761D01*
X23510952Y-39612380D01*
X23415714Y-39612380D01*
X24177619Y-38612380D02*
X24796666Y-38612380D01*
X24463333Y-38993333D01*
X24606190Y-38993333D01*
X24701428Y-39040952D01*
X24749047Y-39088571D01*
X24796666Y-39183809D01*
X24796666Y-39421904D01*
X24749047Y-39517142D01*
X24701428Y-39564761D01*
X24606190Y-39612380D01*
X24320476Y-39612380D01*
X24225238Y-39564761D01*
X24177619Y-39517142D01*
%TO.C,J4*%
X40306666Y-18712380D02*
X40306666Y-19426666D01*
X40259047Y-19569523D01*
X40163809Y-19664761D01*
X40020952Y-19712380D01*
X39925714Y-19712380D01*
X41211428Y-19045714D02*
X41211428Y-19712380D01*
X40973333Y-18664761D02*
X40735238Y-19379047D01*
X41354285Y-19379047D01*
%TO.C,J5*%
X55546666Y-18712380D02*
X55546666Y-19426666D01*
X55499047Y-19569523D01*
X55403809Y-19664761D01*
X55260952Y-19712380D01*
X55165714Y-19712380D01*
X56499047Y-18712380D02*
X56022857Y-18712380D01*
X55975238Y-19188571D01*
X56022857Y-19140952D01*
X56118095Y-19093333D01*
X56356190Y-19093333D01*
X56451428Y-19140952D01*
X56499047Y-19188571D01*
X56546666Y-19283809D01*
X56546666Y-19521904D01*
X56499047Y-19617142D01*
X56451428Y-19664761D01*
X56356190Y-19712380D01*
X56118095Y-19712380D01*
X56022857Y-19664761D01*
X55975238Y-19617142D01*
%TO.C,U1*%
X47498095Y-18712380D02*
X47498095Y-19521904D01*
X47545714Y-19617142D01*
X47593333Y-19664761D01*
X47688571Y-19712380D01*
X47879047Y-19712380D01*
X47974285Y-19664761D01*
X48021904Y-19617142D01*
X48069523Y-19521904D01*
X48069523Y-18712380D01*
X49069523Y-19712380D02*
X48498095Y-19712380D01*
X48783809Y-19712380D02*
X48783809Y-18712380D01*
X48688571Y-18855238D01*
X48593333Y-18950476D01*
X48498095Y-18998095D01*
%TO.C,J6*%
X35226666Y-58932380D02*
X35226666Y-59646666D01*
X35179047Y-59789523D01*
X35083809Y-59884761D01*
X34940952Y-59932380D01*
X34845714Y-59932380D01*
X36131428Y-58932380D02*
X35940952Y-58932380D01*
X35845714Y-58980000D01*
X35798095Y-59027619D01*
X35702857Y-59170476D01*
X35655238Y-59360952D01*
X35655238Y-59741904D01*
X35702857Y-59837142D01*
X35750476Y-59884761D01*
X35845714Y-59932380D01*
X36036190Y-59932380D01*
X36131428Y-59884761D01*
X36179047Y-59837142D01*
X36226666Y-59741904D01*
X36226666Y-59503809D01*
X36179047Y-59408571D01*
X36131428Y-59360952D01*
X36036190Y-59313333D01*
X35845714Y-59313333D01*
X35750476Y-59360952D01*
X35702857Y-59408571D01*
X35655238Y-59503809D01*
%TO.C,J7*%
X57872380Y-30813333D02*
X58586666Y-30813333D01*
X58729523Y-30860952D01*
X58824761Y-30956190D01*
X58872380Y-31099047D01*
X58872380Y-31194285D01*
X57872380Y-30432380D02*
X57872380Y-29765714D01*
X58872380Y-30194285D01*
%TO.C,J8*%
X57872380Y-46053333D02*
X58586666Y-46053333D01*
X58729523Y-46100952D01*
X58824761Y-46196190D01*
X58872380Y-46339047D01*
X58872380Y-46434285D01*
X58300952Y-45434285D02*
X58253333Y-45529523D01*
X58205714Y-45577142D01*
X58110476Y-45624761D01*
X58062857Y-45624761D01*
X57967619Y-45577142D01*
X57920000Y-45529523D01*
X57872380Y-45434285D01*
X57872380Y-45243809D01*
X57920000Y-45148571D01*
X57967619Y-45100952D01*
X58062857Y-45053333D01*
X58110476Y-45053333D01*
X58205714Y-45100952D01*
X58253333Y-45148571D01*
X58300952Y-45243809D01*
X58300952Y-45434285D01*
X58348571Y-45529523D01*
X58396190Y-45577142D01*
X58491428Y-45624761D01*
X58681904Y-45624761D01*
X58777142Y-45577142D01*
X58824761Y-45529523D01*
X58872380Y-45434285D01*
X58872380Y-45243809D01*
X58824761Y-45148571D01*
X58777142Y-45100952D01*
X58681904Y-45053333D01*
X58491428Y-45053333D01*
X58396190Y-45100952D01*
X58348571Y-45148571D01*
X58300952Y-45243809D01*
%TO.C,J9*%
X57872380Y-61293333D02*
X58586666Y-61293333D01*
X58729523Y-61340952D01*
X58824761Y-61436190D01*
X58872380Y-61579047D01*
X58872380Y-61674285D01*
X58872380Y-60769523D02*
X58872380Y-60579047D01*
X58824761Y-60483809D01*
X58777142Y-60436190D01*
X58634285Y-60340952D01*
X58443809Y-60293333D01*
X58062857Y-60293333D01*
X57967619Y-60340952D01*
X57920000Y-60388571D01*
X57872380Y-60483809D01*
X57872380Y-60674285D01*
X57920000Y-60769523D01*
X57967619Y-60817142D01*
X58062857Y-60864761D01*
X58300952Y-60864761D01*
X58396190Y-60817142D01*
X58443809Y-60769523D01*
X58491428Y-60674285D01*
X58491428Y-60483809D01*
X58443809Y-60388571D01*
X58396190Y-60340952D01*
X58300952Y-60293333D01*
%TD*%
M02*
